<?xml version="1.0" standalone="no"?>
<!DOCTYPE svg PUBLIC "-//W3C//DTD SVG 1.1//EN" "http://www.w3.org/Graphics/SVG/1.1/DTD/svg11.dtd">
<svg xmlns="http://www.w3.org/2000/svg">
<metadata>Generated by Fontastic.me</metadata>
<defs>
<font id="untitled-font-2" horiz-adv-x="512">
<font-face font-family="untitled-font-2" units-per-em="512" ascent="480" descent="-32"/>
<missing-glyph horiz-adv-x="512" />

<glyph glyph-name="cup" unicode="&#79;" d="M389 19l-370 0c-6 0-10-4-10-10 0-5 4-9 10-9l370 0c5 0 9 4 9 9 0 6-4 10-9 10z m107 280c-26 30-79 24-88 23l0 38c0 6-4 10-10 10l-389 0c-5 0-9-4-9-10l0-66c0-110 0-165 22-187 18-18 16-49 16-49 0-3 1-5 3-7 2-3 4-4 6-4l313 0c3 0 5 1 7 3 2 2 3 5 3 7 0 0-2 32 16 49 4 4 7 10 10 16 3-1 10-3 18-3 7 0 15 1 22 5 28 12 49 42 66 90 12 37 10 65-6 85z m-107-5c0-98 0-157-16-174-17-17-21-40-22-54l-294 0c-1 14-5 37-22 54-16 17-16 76-16 174l0 57 370 0z m96-73c-19-53-39-72-55-79-15-6-27-1-27-1 0 0-1 0-1 0 6 32 6 80 6 153l0 9c1 0 1 0 2 0 14 2 55 3 72-17 11-14 12-36 3-65z m-371-98l218 0c6 0 9 4 9 10 0 5-3 9-9 9l-218 0c-6 0-10-4-10-9 0-6 4-10 10-10z m50 269c2-2 5-3 7-3 3 0 4 1 6 3 4 3 4 9 0 13 0 0-5 6-8 14-4 11-1 20 8 29 12 12 16 23 15 36-1 17-15 26-17 27-4 3-10 2-13-3-3-5-1-10 3-13 0 0 8-6 9-13 0-6-3-13-10-20-27-28-12-58 0-70z m63 16c2-10 8-15 9-16 2-2 4-3 7-3 3 0 4 1 6 3 4 3 4 9 0 13-2 3-11 14 0 25 9 9 13 18 12 27-1 13-12 20-13 21-4 3-10 2-13-3-4-4-2-10 2-13 0 0 4-3 5-7 0-4-3-8-6-11-10-11-14-24-9-36z"/>
<glyph glyph-name="compass" unicode="&#80;" d="M261 455c-125 0-228-102-228-227 0-126 103-228 228-228 125 0 227 102 227 228 0 125-102 227-227 227z m0-436c-115 0-209 94-209 209 0 114 94 208 209 208 114 0 208-94 208-208 0-115-94-209-208-209z m0 389c-100 0-180-81-180-180 0-100 80-181 180-181 99 0 180 81 180 181 0 99-81 180-180 180z m0-342c-89 0-161 72-161 162 0 89 72 161 161 161 89 0 161-72 161-161 0-90-72-162-161-162z m-57 399c6 0 9 3 9 9l0 9c1 2 6 4 12 6 23 5 48 5 72 0 5-2 10-4 11-6l0-9c0-6 4-9 10-9 5 0 9 3 9 9l0 10c0 11-13 20-26 23-27 6-54 6-81 0-12-3-26-12-26-23l0-10c0-6 4-9 10-9z m147-134l-123-66c-2-1-3-2-4-4l-67-124c-2-3-1-8 2-11 2-2 4-3 7-3 2 0 3 0 5 1l123 67c2 1 3 1 4 3l66 124c2 3 1 8-2 11-3 3-7 4-11 2z m-116-90c0-1 0-1 0 0l38-39c0 0 0 0 1 0l-84-46z m51-27c0 1 0 1 0 0l-38 39c0 0 0 0-1 0l85 46z"/>
<glyph glyph-name="dislike2" unicode="&#90;" d="M493 270c11 9 19 23 19 38 0 21-13 38-31 45 7 8 12 19 12 31 0 23-16 41-37 46 6 7 9 16 9 25 0 24-21 43-48 43l-137 0c-36 0-77-7-94-15l-15-8c-3 13-15 23-29 23l-114 0c-16 0-28-13-28-29l0-218c0-16 12-28 28-28l114 0c13 0 23 7 27 19l16 0c17-20 99-124 99-180 0-42 24-48 38-48 22 0 48 10 48 57 0 26-8 81-16 114l111 0c26 0 47 21 47 47 0 15-8 30-19 38z m-351-28l-114 0c-5 0-9 4-9 9l0 218c0 6 4 10 9 10l114 0c6 0 10-4 10-10l0-218c0-5-4-9-10-9z m323-38l-124 0c-3 0-5-2-7-4-2-3-2-6-1-8 8-28 18-93 18-121 0-33-13-38-29-38-13 0-19 9-19 29 0 69-102 190-106 195-2 3-5 4-7 4l-19 0 0 193 22 12c14 6 52 13 87 13l137 0c16 0 29-11 29-24 0-13-11-24-24-24-6 0-10-3-10-9 0-6 4-10 10-10l8 0c1 0 2 0 3 1 1-1 2-1 3-1l10 0c16 0 28-12 28-28 0-16-12-28-28-28l-10 0c-6 0-9-4-9-10 0-6 3-9 9-9l10 0c2 0 3 0 6 1 1 0 2-1 3-1l10 0c16 0 28-13 28-29 0-16-12-28-28-28l-19 0c-6 0-10-4-10-10 0-5 4-9 10-9l19 0c16 0 28-13 28-29 0-16-12-28-28-28z"/>
<glyph glyph-name="dislike" unicode="&#50;" d="M512 318c0 20-13 38-31 44 7 9 12 19 12 31 0 23-16 41-37 47 6 7 9 15 9 25 0 23-21 42-48 42l-137 0c-32 0-71-4-85-10l-19-10c-4-2-6-7-3-12 1-5 7-7 12-4l19 10c7 3 41 7 76 7l137 0c16 0 29-10 29-23 0-14-11-24-24-24-6 0-10-4-10-10 0-5 4-9 10-9l8 0c1 0 2 0 3 1 1-1 2-1 3-1l10 0c16 0 28-12 28-29 0-16-12-28-28-28l-10 0c-6 0-9-4-9-9 0-6 3-10 9-10l10 0c2 0 3 0 6 1 1 0 2-1 3-1l10 0c16 0 28-12 28-28 0-16-12-29-28-29l-19 0c-6 0-10-4-10-9 0-6 4-10 10-10l19 0c16 0 28-12 28-28 0-16-12-29-28-29l-124 0c-3 0-5-2-7-3-2-3-2-6-1-9 8-27 18-110 18-139 0-34-13-38-29-38-13 0-19 8-19 28 0 68-101 209-106 214-2 2-5 4-7 4l-22 0-24 210c-2 15-15 27-30 27l-86 0c-16 0-28-12-28-28l0-218c0-16 12-29 28-29l114 0c8 0 15 3 20 9 3 3 5 6 6 10l17 0c16-22 99-142 99-199 0-42 24-47 38-47 22 0 48 9 48 57 0 24-8 95-16 132l111 0c26 0 47 21 47 48 0 15-8 29-19 38 11 8 19 22 19 38z m-362-58c0-2 0-5-2-6-1-2-4-3-6-3l-114 0c-5 0-9 4-9 10l0 218c0 6 4 9 9 9l86 0c5 0 11-4 11-10z"/>
<glyph glyph-name="disabled" unicode="&#55;" d="M230 399c12 0 23 4 32 11 23 18 28 51 10 75-10 15-26 22-43 22-12 0-23-4-32-10-23-18-28-51-10-76 10-13 26-22 43-22z m-21 83c5 4 13 6 20 6 11 0 21-5 28-14 11-16 8-38-7-49-5-5-13-7-20-7-11 0-21 6-28 14-12 16-10 38 7 50z m222-381l-38 103c0 1 0 1 0 2l-1 2c-3 6-11 20-27 20l-88 0-2 19 57 0c2 0 18-1 28 7 5 5 8 11 8 17 0 9-2 15-8 21-6 7-16 10-28 10l-65 0-3 32c-3 19-10 32-21 41-15 11-34 7-40 6-11-2-20-7-26-16-5-8-8-19-6-28l20-138c2-15 15-39 38-39l101 0 45-95c0-1 7-17 21-22 4-1 8-2 12-2 5 0 10 1 16 4 10 4 14 12 16 18 3 12 0 24-9 38z m-9-31c-1-2-2-4-7-6-4-2-8-3-12-1-6 1-10 9-11 12l-48 100c-2 3-5 6-8 6l-107 0c-13 0-19 18-19 23l-20 136c-1 6 0 11 2 16 3 4 8 7 14 8 4 1 6 1 10 1 7 0 12-2 16-5 7-4 12-14 14-27l4-39c1-5 5-9 10-9l72 0c6 0 12-2 15-4 2-2 2-4 2-8 0-2-1-3-2-4-4-4-11-4-15-4l-95 0c-6 0-9-3-9-9 0-6 3-9 9-9l18 0 4-30c1-5 5-8 9-8l97 0c5 0 7-4 10-11 0-1 1-1 1-2l38-102c0-1 0-1 1-2 6-9 8-17 7-22z m-82 4c-27-35-68-55-112-55-79 0-143 63-143 142 0 50 26 96 69 122 4 2 5 8 2 13-2 5-8 6-13 3-47-30-77-81-77-138 0-89 72-161 162-161 50 0 96 23 127 63 2 3 2 10-2 13-4 3-10 2-13-2z m-217 87c0 6 1 12 2 17 1 5-3 11-7 12-5 1-11-3-12-8-1-8-2-14-2-21 0-36 16-70 44-94 2-2 4-2 6-2 2 0 5 1 7 4 4 4 3 11-1 13-23 19-37 49-37 79z"/>
<glyph glyph-name="church2" unicode="&#56;" d="M428 209l-85 70c-9 7-27 14-40 14l-94 0c-13 0-31-7-40-14l-85-70c-10-9-18-25-18-38l0-143c0-16 13-28 29-28l104 0c6 0 10 4 10 9l0 105c0 26 20 47 47 47 27 0 47-21 47-47l0-105c0-5 4-9 10-9l104 0c16 0 29 12 29 28l0 143c0 13-8 29-18 38z m-1-181c0-5-4-9-10-9l-95 0 0 95c0 37-29 66-66 66-37 0-66-29-66-66l0-95-95 0c-6 0-10 4-10 9l0 143c0 7 6 19 12 23l84 71c7 5 19 9 28 9l94 0c9 0 21-5 28-9l84-71c6-4 12-16 12-23z m-237 275l132 0c3 0 5 1 7 3 1 1 12 14 12 35 0 41-52 70-76 82l0 42 19 0c6 0 10 3 10 9 0 6-4 10-10 10l-19 0 0 19c0 5-3 9-9 9-6 0-9-4-9-9l0-19-19 0c-6 0-10-4-10-10 0-6 4-9 10-9l19 0 0-42c-24-12-76-41-76-82 0-21 11-34 12-35 2-2 4-3 7-3z m66 104c44-23 66-45 66-66 0-9-2-15-4-19l-124 0c-2 4-4 10-4 19 0 21 22 43 66 66z"/>
<glyph glyph-name="church" unicode="&#57;" d="M489 160l-134 67c-1 1-3 1-4 1l0 161c0 46-35 80-86 85l0 29c0 5-3 9-9 9-6 0-9-4-9-9l0-29c-51-4-86-38-86-85l0-161c-1 0-3 0-4-1l-134-67c-14-5-23-22-23-36l0-96c0-16 12-28 28-28l456 0c16 0 28 12 28 28l0 96c0 14-9 31-23 36z m-7-17c3-2 7-6 9-10l-121 0 0 19c4 0 6 2 8 5 2 5 0 11-3 13l-24 11 0 27z m-226 312c40 0 70-24 75-57l-150 0c5 33 35 57 75 57z m76-76l0-188-72 36c-3 1-6 1-9 0l-71-36 0 188z m-302-236l131 65 0-27-23-11c-4-2-6-8-3-13 2-2 4-4 8-4l0-19-122 0c2 3 6 7 9 9z m-11-115l0 86 123 0 0-95-114 0c-5 0-9 4-9 9z m256-9l-38 0 0 57c0 6 4 9 10 9l18 0c6 0 10-3 10-9z m19 0l0 57c0 16-12 28-29 28l-18 0c-17 0-29-12-29-28l0-57-57 0 0 141 95 48 95-48 0-141z m199 9c0-5-4-9-9-9l-114 0 0 95 123 0z m-237 237c21 0 38 18 38 38 0 21-17 38-38 38-21 0-38-17-38-38 0-20 17-38 38-38z m0 57c10 0 19-8 19-19 0-10-9-19-19-19-10 0-19 9-19 19 0 11 9 19 19 19z"/>
<glyph glyph-name="destination" unicode="&#33;" d="M434 388l-201 92 0 13c0 6-4 10-10 10-5 0-9-4-9-10l0-437c0-6 4-9 9-9 6 0 10 3 10 9l0 28c78-2 121-22 121-33 0-11-46-32-131-32-84 0-130 21-130 32 0 9 28 26 94 31 6 0 9 5 8 10 0 6-4 9-10 9-53-4-111-20-111-50 0-33 75-51 149-51 75 0 149 18 149 51 0 33-69 50-139 51l0 162 201 93c11 5 12 13 12 15 0 3-1 12-12 16z m-201-103l0 175 191-88z"/>
<glyph glyph-name="globe2" unicode="&#39;" d="M261 503c-139 0-252-113-252-252 0-138 113-251 252-251 138 0 251 113 251 251 0 139-113 252-251 252z m229-209c-1-1-2-3-2-4-1-14-15-35-24-48l-3-5c-7-10-10-27-13-42-2-8-3-16-5-20-2-6-6-12-10-17 1 2 1 4 2 7 4 11-3 22-8 30-2 2-3 5-4 7 0 1-17 50-29 53-2 0-37 6-48 2-5-2-21-1-29 6-4 2-8 13-11 49l0 3c0 2 2 4 7 8 4 3 7 7 10 11l1 2c1 2 3 6 4 7 9-2 16 1 19 3 4 1 10-1 17-4 7-4 16-8 27-10 15-2 20 0 28 3 4 2 8 4 16 6 14 3 17 10 18 16 3 13-15 26-15 26-7 4-14 0-22-4-3-2-6-4-9-5-2-1-2 0-7 1-3 2-9 4-18 6-6 1-6 2-7 5-1 4-3 9-8 12-4 2-7 3-10 2-5-2-7-5-8-7-1-2-2-4-5-5-6-2-10-4-13-4-4-2-5-3-11-2 1 2 3 2 4 4 1 1 3 3 4 4 7 9 24 32 29 47 3 10 0 15-3 18-7 8-18 6-29 2-6-2-6-1-9 1-3 2-7 5-14 7-4 0-4 3-4 16 93-15 174-90 192-187z m-290 182c7-14 13-37 9-44-1-3-1-7 0-9-7 0-13-1-17-5-24-21-68-74-70-92 0-1 0-1 0-2-5 7-12 15-21 18-6 2-13 1-18-2-15-10-21-28-19-43 2-10 8-17 15-19 8-2 13 0 17 2 0-3 1-6 3-12 2-5 2-9 2-13-12 4-25 10-30 14-4 4-6 9-8 15-2 7-3 14-7 18-4 4-7 32-6 46 0 0 0 1 0 1 28 62 83 109 150 127z m-172-225c0 19 2 38 6 55 2-8 5-15 9-17 1-1 2-5 3-8 1-7 4-18 13-24 11-10 41-20 47-21-5-17-5-40-5-40 1-14 14-37 40-55 13-11 12-22 11-34 0-5-1-8-1-13 1-11 6-25 13-38 3-7 5-12 6-17-83 33-142 116-142 212z m159-205c-2 4-4 10-6 15-5 12-11 25-12 33 0 3 0 7 1 10 1 14 4 35-18 51-21 15-31 34-32 41-1 9 3 30 5 38 6 2 19 7 27 14 1 1 2 1 5 1 8 0 21-5 31-14 18-17 34-31 56-36 7-2 14-3 19-3 3 0 8-1 9-1 0 0 0 0 0 0 0-1-2-2-3-3-3-3-6-6-7-11-1-2-3-7-6-14-7-21-27-74-40-83-5-3-8-6-11-8-12-7-19-13-18-30z m74-27c-19 0-37 1-53 6 0 3-1 9-1 22-1 8-1 8 8 14 4 1 7 4 12 7 17 12 33 53 47 91 2 7 3 10 4 12 1 2 3 4 5 6 4 5 10 10 7 22-4 13-15 14-26 15-4 1-10 1-16 3-18 5-32 16-48 32-12 11-30 19-44 19-7 0-13-2-17-5-5-5-14-9-20-11 0 7 0 15-4 24-1 6-1 9-1 11 0 3 0 8-6 13-7 5-15 2-19 0-2-2-5-3-7-3 1 1-1 5 0 10 1 8 5 13 9 16 2 1 3 1 4 1 6-2 13-13 16-20l3-5 5 0c1 0 18 0 21 24 1 9 37 55 64 80 2 1 7 0 10 0 6 0 10-1 14 2l4 3 1 3c1 5-1 10-4 14 0 0-1 1-1 1 5 17-5 42-9 54 13 3 28 4 42 4 5 0 11 0 17-1 0-1 0-1 0-2 0-9-1-30 20-36 5-2 8-4 11-5 7-3 11-5 24-2 4 0 7 1 9 1-5-11-18-30-25-39 0-1-1-3-2-3-7-7-13-14-11-24 2-5 7-9 14-11 13-4 19-1 26 3 3 1 6 3 10 4 4 1 7 2 10 5 3-4 7-10 20-12 6-1 11-3 14-4 6-1 11-3 19-1 5 0 9 3 13 5 1 1 4 2 5 3 2-2 3-4 4-5-1 0-1-1-3-1-10-2-15-4-19-5-6-3-8-3-19-2-7 1-14 4-21 7-10 5-20 10-32 6l-2-1c0 0-3-2-7-1-15 3-20-10-23-17l-1-2c-1 0-3-2-5-4-5-5-15-12-14-24l0-3c2-26 5-52 17-63 14-12 37-13 47-9 5 1 27-1 35-2 5-7 16-33 18-41 1-4 4-9 7-13 3-3 7-9 6-12-1-2-10-22-4-33 2-4 5-6 7-7 1 0 2-1 3-1 14 0 32 27 36 38 2 7 4 15 6 25 2 12 5 27 9 35l3 5c4 5 9 13 13 21 0-1 0-1 0-2-3-131-107-235-235-235z"/>
<glyph glyph-name="info" unicode="&#41;" d="M256 503c-139 0-251-113-251-252 0-138 112-251 251-251 139 0 251 113 251 251 0 139-112 252-251 252z m0-484c-128 0-233 104-233 232 0 129 105 233 233 233 128 0 233-104 233-233 0-128-105-232-233-232z m0 446c-118 0-214-95-214-214 0-118 96-214 214-214 118 0 214 96 214 214 0 119-96 214-214 214z m0-409c-108 0-195 87-195 195 0 108 87 196 195 196 108 0 195-88 195-196 0-108-87-195-195-195z m-5 251c24 0 42 19 42 42 0 23-18 42-42 42-23 0-42-19-42-42 0-23 19-42 42-42z m0 65c13 0 24-10 24-23 0-13-11-23-24-23-13 0-23 10-23 23 0 13 10 23 23 23z m42-193l0 110-102 0 0-19c18 0 26-16 28-21l0-71c-3-3-12-8-22-11l-6-2 0-35 130 0 0 35-5 3c-10 2-20 8-23 11z m10-30l-94 0 0 3c14 5 28 14 28 25l0 76-1 2c0 1-2 8-8 16l47 0 0-93c0-4 0-12 28-25z"/>
<glyph glyph-name="key" unicode="&#44;" d="M341 512c-94 0-170-77-170-171 0-22 4-46 12-64l-180-180c-2-2-3-4-3-7l0-81c0-5 4-9 9-9l81 0c3 0 5 1 7 3l33 36c2 2 2 4 3 6l1 19 20 2c1 0 3 1 5 2l28 24c2 2 4 5 4 8l0 14 17 0c2 0 4 1 6 3l24 25 14 0c3 0 5 1 7 3l32 33c16-4 33-7 50-7 94 0 171 76 171 170 0 94-77 171-171 171z m-94-351l-14 0c-3 0-4-1-6-3l-24-25-23 0c-6 0-9-4-9-10l0-20-22-18-25-2c-5 0-8-3-8-8l-2-26-29-30-43 0 189 190c13-10 26-17 40-24z m94 29c-37 0-76 15-104 39-4 4-9 3-13 0-1-1-2-3-2-4l-199-199c-3-2-4-4-4-7l0 67 176 177 5 5c3 3 4 8 2 11-8 16-12 41-12 62 0 84 68 152 151 152 84 0 152-68 152-152 0-84-68-151-152-151z m50 250c-28 0-51-23-51-50 0-28 23-51 51-51 27 0 50 23 50 51-1 28-23 50-50 50z m0-81c-17 0-32 15-32 32 0 17 15 31 32 31 17 0 31-14 31-31-1-17-14-32-31-32z"/>
<glyph glyph-name="hand" unicode="&#45;" d="M446 313c-12 0-21-4-30-11-4 22-23 39-46 39-13 0-26-5-34-15-9 14-24 25-42 25-11 0-21-4-29-10l0 124c0 26-20 47-47 47-26 0-47-21-47-47l0-263-70 63c-19 18-49 18-65 2-16-16-17-46-1-66l86-111c14-17 36-43 52-58l2-3c17-17 49-29 72-29l47 0c0 0 1 0 1 0 1 0 1 0 2 0 1 0 1 0 2 1 1 0 1 1 2 1 0 0 1 1 1 1 0 1 0 1 0 2 0 1 0 1 1 2 0 0 0 1 0 1 0 0 5 30 25 30 23 0 23-27 23-29 0-6 4-10 9-10l62 0c39 0 71 34 71 76l0 190c0 27-21 48-47 48z m28-237c0-31-24-57-52-57l-53 0c-3 17-13 39-42 39-25 0-37-22-42-39l-38 0c-18 0-45 11-58 24l-3 3c-14 14-37 39-49 55l-88 112c-9 13-10 32 0 41 10 10 28 9 39-2l83-76 0-5c0-6 3-10 9-10 6 0 10 4 10 10l0 294c0 16 12 28 28 28 16 0 29-12 29-28l0-218c0-6 3-10 9-10 6 0 9 4 9 10l0 56c0 17 13 29 29 29 16 0 28-12 28-29l0-66c0-6 4-9 10-9 6 0 9 3 9 9l0 57c0 16 13 28 29 28 16 0 28-12 28-28l0-66c0-6 4-10 10-10 5 0 9 4 9 10l0 37c0 17 13 29 29 29 16 0 28-12 28-29z"/>
<glyph glyph-name="handwheel" unicode="&#60;" d="M503 261l-38 0c-1 49-22 94-53 128l27 27c4 4 4 9 0 13-3 4-9 4-13 0l-27-27c-35 32-80 51-129 54l0 37c0 6-4 10-9 10-6 0-10-4-10-10l0-37c-49-2-94-22-128-53l-27 27c-4 4-9 4-13 0-4-4-4-9 0-13l27-27c-32-35-51-80-54-129l-37 0c-6 0-10-4-10-10 0-5 4-9 10-9l37 0c2-49 22-94 53-128l-27-27c-4-4-4-10 0-13 2-2 5-3 6-3 3 0 5 1 7 3l27 27c34-32 79-52 128-54l0-37c0-5 4-9 10-9 5 0 9 4 9 9l0 37c49 2 94 23 129 54l26-27c2-2 5-3 7-3 3 0 5 1 7 3 3 3 3 9 0 13l-27 27c31 34 51 79 53 128l37 0c5 0 9 4 9 9 0 6-2 10-7 10z m-242-196c-103 0-187 84-187 186 0 103 84 187 187 187 102 0 186-84 186-187 0-102-84-186-186-186z m118 305c-31 30-73 49-118 49-46 0-88-19-119-49-30-31-49-73-49-119 0-45 19-87 49-118 31-31 73-49 119-49 45 0 87 18 118 48 31 32 49 74 49 119 0 46-18 88-49 119z m-7-217l-53 53c9 10 13 22 15 36l75 0c-2-34-15-65-37-89z m-259 89l74 0c2-14 8-26 15-36l-53-53c-21 24-34 55-36 89z m36 108l53-53c-8-10-13-22-15-36l-74 0c2 34 15 65 36 89z m112-155c-31 0-56 26-56 56 0 31 25 56 56 56 30 0 56-25 56-56 0-30-26-56-56-56z m45 115c-10 8-22 13-36 15l0 74c34-2 65-15 89-37z m-55 15c-14-2-26-8-36-15l-53 53c24 21 55 34 89 37z m-36-132c10-9 22-13 36-15l0-75c-34 2-65 16-89 38z m55-15c14 2 26 7 36 15l53-53c-24-22-55-35-89-38z m64 83c-2 14-7 26-15 36l53 53c22-24 35-55 38-89z m-55-10c0-10-8-18-18-18-11 0-19 8-19 18 0 11 8 19 19 19 10 0 18-8 18-19z"/>
<glyph glyph-name="flag" unicode="&#64;" d="M413 260c-3 5-3 15 0 20l54 81c5 8 6 15 2 21-3 5-10 9-18 9l-139 0 0 56c0 16-12 28-28 28l-223 0 0 18c0 6-4 10-10 10-5 0-9-4-9-10l0-484c0-5 4-9 9-9 6 0 10 4 10 9l0 205 186 0c5 0 9 4 9 9 0 6-4 10-9 10l-186 0 0 223 223 0c6 0 9-4 9-9l0-214c0-8-5-18-11-23l-45-33c-10-8-9-15-8-19 1-3 5-9 18-9l204 0c9 0 15 4 19 9 3 6 3 13-2 21z m38-92l-195 0 37 27c10 9 19 25 19 38l0 139 139 0c0 0 1 0 1 0 0 0 0-1-1-1l-53-81c-8-11-8-29 0-41l53-81c0 0 0 0 1 0 0 0-1 0-1 0z"/>
<glyph glyph-name="flashlight" unicode="&#91;" d="M152 156c-11 11-30 11-40 0l-14-14c-12-11-12-29 0-40 5-5 12-8 20-8 7 0 15 3 19 8l14 14c11 11 11 29 1 40z m-15-27l-13-13c-4-4-9-4-13 0-4 3-4 9 0 13l13 13c2 2 4 3 7 3 3 0 5-1 6-3 4-4 4-9 0-13z m162 362c-6 6-12 7-16 7-6 0-15-5-17-18l-15-117c-1-8 1-18 5-26-4-1-8-4-11-7l-235-234c-11-12-11-30 0-40l40-40c6-6 13-8 20-8 8 0 15 2 20 8l234 234c3 3 6 8 7 12 7-3 14-5 22-5 2 0 3 0 4 0l117 15c9 1 15 6 17 12 2 7 0 15-6 20z m-181-422l-54 54 100 101 54-54z m-40-41c-4-3-10-3-14 0l-39 40c-4 4-4 10 0 14l26 26 54-54z m234 236l-81-81-54 54 81 81c2 2 4 2 7 2 2 0 4 0 6-2l40-40c5-5 5-11 1-14z m45 11c-8-1-19 3-25 8l-53 54c-6 5-10 17-9 24l15 117 188-188z m15 173c0 0 1 0 1 0 4 0 8 4 9 9l6 42c1 4-3 9-9 10-4 1-10-3-10-8l-6-42c-1-5 3-10 9-11z m124-55l-45-7c-4-1-8-6-8-11 1-4 5-8 9-8 0 0 1 0 1 0l45 7c5 1 8 5 8 10 0 6-4 9-10 9z m-84 15c3 0 5 1 7 3l33 33c4 4 4 9 0 13-4 4-9 4-13 0l-33-33c-4-4-4-10 0-13 2-2 5-3 6-3z"/>
<glyph glyph-name="lifebuoy" unicode="&#94;" d="M512 251c0 25-4 51-11 74-2 11-8 39-8 66 0 28 0 50-21 72-21 21-44 21-72 21-22 0-57 7-69 8-22 7-46 11-70 11-25 0-49-4-71-11-11-1-47-8-69-8-28 0-50 0-72-21-21-22-21-44-21-72 0-27-6-55-8-67-7-22-11-48-11-73 0-25 4-50 11-73 2-11 8-39 8-66 0-28 0-51 21-72 22-21 44-21 72-21 22 0 58-7 69-9 22-6 46-10 71-10 24 0 48 4 70 10 12 2 47 9 69 9 28 0 51 0 72 21 21 21 21 44 21 72 0 27 6 55 8 67 7 22 11 47 11 72z m-187-223l-8 75c46 16 76 46 92 92l75-8c0-1-1-3-1-5-23-73-82-132-155-154-2 0-2 0-3 0z m-129 0c-1 0-1 0-2 0-75 22-133 80-156 154 0 2-1 4-1 5l76 8c15-46 45-76 92-92z m0 447l9-76c-47-15-77-45-92-92l-76 9c0 1 1 2 1 4 23 74 82 132 156 155 1 0 1 0 2 0z m-163-269c-3 15-5 30-5 45 0 16 2 31 5 46l74-8c-3-13-5-26-5-38 0-12 2-25 5-37z m88 45c0 78 62 140 140 140 77 0 139-62 139-140 0-77-62-139-139-139-78 0-140 62-140 139z m204 224c1 0 1 0 3 0 74-23 133-80 155-155 0-2 1-3 1-4l-75-9c-16 47-46 77-92 92z m89-186l75 8c3-15 4-30 4-46 0-15-1-30-4-45l-75 8c3 12 5 25 5 37 0 12-2 25-5 38z m-14 176c28 0 43 0 59-15 16-16 16-31 16-59 0-3 0-6 0-8-21 33-50 62-83 82 3 0 6 0 8 0z m-94 14l-8-74c-12 3-25 5-37 5-13 0-25-2-38-5l-8 74c15 3 30 5 46 5 15 0 30-2 45-5z m-259-88c0 28 0 43 15 59 16 15 31 15 59 15 3 0 6 0 8 0-33-20-62-49-82-82 0 2 0 5 0 8z m74-354c-28 0-43 0-59 16-15 16-15 31-15 59 0 2 0 5 0 8 20-33 49-62 82-83-2 0-5 0-8 0z m94-14l8 75c13-3 26-5 38-5 13 0 25 2 37 5l8-75c-15-3-30-4-45-4-16 0-31 1-46 4z m260 89c0-28 0-43-16-59-16-16-31-16-59-16-2 0-5 0-8 0 33 21 62 50 83 83 0-3 0-6 0-8z"/>
<glyph glyph-name="like" unicode="&#92;" d="M493 232c11 9 19 23 19 38 0 27-21 48-47 48l-111 0c8 37 16 108 16 132 0 48-26 57-48 57-14 0-38-5-38-47 0-57-83-177-99-199l-17 0c-1 4-3 7-6 10-5 6-12 9-20 9l-114 0c-16 0-28-13-28-29l0-218c0-16 12-28 28-28l86 0c15 0 28 12 30 27l24 210 22 0c2 0 5 2 7 4 5 5 106 146 106 214 0 20 6 28 19 28 16 0 29-4 29-38 0-29-10-112-18-139-1-3-1-6 1-9 2-2 4-3 7-3l124 0c16 0 28-13 28-29 0-16-12-28-28-28l-19 0c-6 0-10-4-10-10 0-5 4-9 10-9l19 0c16 0 28-13 28-29 0-16-12-28-28-28l-10 0c-1 0-2 0-3-1-3 1-4 1-6 1l-10 0c-6 0-9-4-9-10 0-5 3-9 9-9l10 0c16 0 28-12 28-28 0-17-12-29-28-29l-10 0c-1 0-2 0-3-1-1 0-2 1-3 1l-8 0c-6 0-10-4-10-9 0-6 4-10 10-10 13 0 24-10 24-24 0-13-13-23-29-23l-137 0c-35 0-69 4-77 8l-19 10c-5 2-10 0-12-4-2-5 0-11 3-12l19-10c14-7 54-10 85-10l138 0c27 0 48 19 48 42 0 10-3 18-9 25 21 5 37 24 37 46 0 13-5 23-12 32 18 5 31 23 31 43 0 16-8 30-19 38z m-368-198c0-6-6-10-11-10l-86 0c-5 0-9 3-9 9l0 218c0 6 4 10 9 10l114 0c2 0 5-1 6-3 1-2 2-4 2-6z"/>
<glyph glyph-name="glasses" unicode="&#57347;" d="M506 241c-4 2-9 4-14 5-21 49-77 173-99 186-17 10-28 7-34 3-19-11-18-43-18-50 0-6 5-10 10-10 6 0 9 5 9 10-1 11 2 29 9 33 4 4 10 0 14-2 11-6 50-84 85-163-108 29-176-10-190-24-9-8-35-5-42-1-1 1-2 2-4 3-69 40-135 36-178 27 42 65 94 142 106 150 4 1 11 4 14 2 7-4 10-22 9-34 0-5 4-9 9-9 5 0 10 4 10 9 0 7 1 39-18 51-7 3-17 6-33-3-21-13-98-132-124-175-13-4-20-8-22-8-5-3-6-9-4-13 3-5 8-6 13-4 0 0 3 2 9 4 0 0 1-1 1-1 1 0 1-1 2-1-2-22-2-82 29-120 16-20 38-31 65-33 5 0 9-1 13-1 28 0 52 9 70 27 33 34 35 89 34 108 6-1 11-2 19-2 7 0 12 1 19 2-1-19 1-75 34-109 18-18 41-27 70-27 4 0 9 0 13 1 27 2 49 13 65 33 31 38 31 97 29 120 1 0 3 0 4 1 3-1 6-2 9-3 4-2 10 1 12 6 2 5 0 10-5 12z m-316-129c-16-16-39-23-68-21-21 2-40 10-52 27-34 40-25 114-25 114 0 1 0 2 0 3 37 11 104 20 174-18-1-2-1-3-1-5 0-1 6-66-28-100z m252 6c-12-16-31-25-52-27-29-3-52 5-68 21-34 34-28 99-28 100 0 2 0 4-1 5 14 12 78 44 174 16 0 0 0-1 0-1-1 0 8-74-25-114z m-89 111l-38-48c-3-4-3-10 2-13 2-1 3-2 5-2 3 0 6 1 8 4l38 47c3 4 3 11-2 13-4 3-9 3-13-1z m-256 0l-38-48c-3-4-3-10 2-13 2-1 3-2 5-2 3 0 6 1 8 4l38 47c3 4 3 11-2 13-4 3-9 3-13-1z"/>
<glyph glyph-name="like2" unicode="&#57349;" d="M493 242c11 8 19 23 19 38 0 26-21 47-47 47l-111 0c8 33 16 88 16 114 0 47-26 57-48 57-14 0-38-6-38-48 0-56-82-160-99-180l-16 0c-4 12-14 19-27 19l-114 0c-16 0-28-12-28-28l0-218c0-16 12-29 28-29l114 0c14 0 26 10 28 23l15-8c17-8 59-15 94-15l138 0c27 0 48 19 48 43 0 9-3 18-9 25 21 4 37 23 37 46 0 12-5 23-12 31 18 7 31 24 31 45 0 15-8 29-19 38z m-341-199c0-6-4-10-10-10l-114 0c-5 0-9 4-9 10l0 218c0 5 4 9 9 9l114 0c6 0 10-4 10-9z m313 132l-10 0c-1 0-2 0-3-1-3 1-4 1-6 1l-10 0c-6 0-9-3-9-9 0-6 3-10 9-10l10 0c16 0 28-12 28-28 0-16-12-28-28-28l-10 0c-1 0-2 0-3-1-1 0-2 1-3 1l-8 0c-6 0-10-4-10-10 0-6 4-9 10-9 13 0 24-11 24-24 0-13-13-24-29-24l-137 0c-35 0-73 7-87 13l-22 12 0 193 19 0c2 0 5 1 7 4 4 5 106 126 106 195 0 20 6 29 19 29 16 0 29-5 29-38 0-28-10-93-18-121-1-2-1-5 1-8 2-3 4-4 7-4l124 0c16 0 28-12 28-28 0-16-12-29-28-29l-19 0c-6 0-10-4-10-9 0-6 4-10 10-10l19 0c16 0 28-12 28-28 0-16-12-29-28-29z"/>
<glyph glyph-name="location" unicode="&#57350;" d="M474 273c0 1 0 1 0 2l0 175c0 4-2 7-6 9l-113 52c-3 1-6 1-8 0l-110-50-110 50c-3 1-6 1-8 0l-113-52c-4-2-6-5-6-9l0-341c0-3 2-7 5-8 3-1 5-1 9 0l109 50 110-51c1-1 3-1 4-1 1 0 3 0 4 1l62 28c34-66 84-122 86-125 2-2 4-3 6-3 3 0 6 1 7 3 3 3 61 70 93 143 8 15 10 31 10 47 2 33-10 60-31 80z m-237-154l-110 51c-3 1-6 1-8 0l-100-47 0 321 104 48 110-50c3-1 6-1 8 0l110 50 104-48 0-156c-17 11-37 17-59 17-61 0-112-49-112-111 0-17 4-32 11-47 0-1 1-1 1-2z m242 36c-25-57-67-110-84-131-17 20-58 74-84 131-5 12-8 25-8 39 0 51 42 92 93 92 52 0 93-40 93-92-1-13-4-26-10-39z m-83 94c-29 0-54-24-54-54 0-29 25-54 54-54 30 0 54 25 54 54 0 31-24 54-54 54z m0-89c-19 0-35 16-35 35 0 19 16 35 35 35 19 0 35-16 35-35 0-19-16-35-35-35z m-179 174c-2 3-5 5-7 8-3 4-9 4-13 1-4-4-4-9-1-13 2-3 4-5 6-8 4-5 8-10 14-15 2-1 4-2 6-2 3 0 6 1 7 4 3 4 3 11-1 13-3 3-7 8-11 12z m-45 28c-18 2-32-2-33-2-4-2-7-6-6-11 1-4 4-7 9-7 1 0 2 0 3 0 0 0 10 3 25 1 4-1 9 3 10 9 1 5-4 9-8 10z m147-33c1 0 3 1 5 2 13 8 20 17 23 21 4 4 3 10-1 13-4 4-10 3-13-1-3-3-9-9-19-17-4-3-6-9-2-13 1-3 4-5 7-5z m-25-5c-2 5-8 7-12 5-6-3-13-5-19-8-2-1-5-1-7-1-5-1-9-7-7-12 1-4 5-6 10-6 1 0 2 0 3 0 3 0 4 0 7 1 8 3 14 5 21 8 4 3 6 9 4 13z m-199 27c-21 0-38-17-38-38 0-21 17-38 38-38 21 0 38 17 38 38 0 21-17 38-38 38z m0-57c-11 0-19 8-19 19 0 10 8 19 19 19 10 0 19-9 19-19 0-11-9-19-19-19z m284 66c21 0 38 17 38 38 0 21-17 38-38 38-21 0-38-17-38-38 0-21 17-38 38-38z m0 57c11 0 19-8 19-19 0-10-8-19-19-19-10 0-19 9-19 19 0 11 9 19 19 19z"/>
<glyph glyph-name="globe" unicode="&#57352;" d="M236 144c100 0 182 82 182 183 0 100-82 182-182 182-101 1-183-81-183-182 0-101 82-183 183-183z m0 347c90 0 163-74 163-164 0-89-73-163-163-163-90 0-164 73-164 163 0 91 74 164 164 164z m233-164c0 51-16 97-45 138l3 2c4 3 5 9 1 13-4 4-10 5-14 1l-22-19c-4-4-5-10-1-14 2-2 5-4 8-4 2 0 5 1 7 2l5 4c26-37 39-79 39-123 0-118-95-214-213-214-55 0-108 21-147 59l6 5c4 4 4 9 1 13-4 4-10 5-14 1l-25-21c-4-4-5-10-1-14 0 0 3-1 6-1 2 0 5 1 6 1l4 4c42-40 96-63 154-65l0-37c0-6 4-10 10-10 29 0 48-16 59-29l-119 0c6 8 15 17 28 23 5 1 7 7 5 12-2 5-8 7-13 5-32-15-45-45-46-45-1-3-1-7 1-10 2-3 5-5 7-5l155 0c3 0 7 2 9 5 2 3 2 7 0 10-1 1-25 47-77 53l0 27c124 6 223 108 223 233z"/>
<glyph glyph-name="music" unicode="&#57354;" d="M295 289c0 40-32 72-72 72-40 0-72-32-72-72 0-40 32-72 72-72 40 0 72 32 72 72z m-72-53c-30 0-53 24-53 53 0 30 23 53 53 53 29 0 53-23 53-53 0-29-24-53-53-53z m15 53c0-8-7-15-15-15-9 0-15 7-15 15 0 9 6 15 15 15 8 0 15-6 15-15z m-6 158c0 5-3 9-9 9-92 0-167-75-167-167 0-6 4-9 9-9 6 0 10 3 10 9 0 82 66 148 148 148 6 0 9 5 9 10z m252-163l-10 0c-4 0-7-1-9-1l0 11c0 13-10 25-22 27-15 109-109 191-220 191-123 0-223-100-223-223 0-123 100-223 223-223 21 0 42 3 62 9l23-29c23-31 51-46 81-46l38 0c47 0 85 38 85 85l0 171c0 16-12 28-28 28z m-261-199c-113 0-204 91-204 204 0 113 91 204 204 204 100 0 185-73 201-171-4 0-8-2-12-3-4 7-13 13-23 13l-10 0c-16 0-28-12-28-29l0-1c-3 0-6 1-10 1l-9 0c-16 0-29-12-29-28l0-105-26 18c-7 4-14 5-21 4-8-2-13-7-17-15l-2-4c-7-13-4-32 5-42l31-40c-17-4-33-6-50-6z m270 0c0-37-29-66-66-66l-38 0c-24 0-47 13-66 38l-23 30c0 1 0 2 0 2-1 3-3 5-6 6l-37 47c-4 5-6 15-3 21l2 4c1 2 3 4 5 4 2 1 4 0 5-1l41-28c3-2 7-2 10 0 3 2 4 5 4 9l0 124c0 6 4 9 10 9l9 0c6 0 10-3 10-9l0-95c0-6 4-9 9-9 6 0 10 3 10 9l0 123c0 6 4 10 9 10l10 0c5 0 9-4 9-10l0-123c0-6 4-9 10-9 5 0 9 3 9 9l0 114c0 6 4 9 10 9l9 0c6 0 10-3 10-9l0-114c0-6 3-9 9-9 6 0 10 3 10 9l0 76c0 6 3 9 9 9l10 0c5 0 9-3 9-9l0-171z"/>
<glyph glyph-name="pictures" unicode="&#57355;" d="M457 503l-329 0c-26 0-46-20-46-46l0-46-27 0c-26 0-46-20-46-45l0-311c0-26 20-46 46-46l329 0c26 0 46 20 46 46l0 55 27 0c26 0 46 20 46 45l0 302c0 26-20 46-46 46z m-46-448c0-16-11-28-27-28l-329 0c-16 0-28 12-28 28l0 311c0 15 12 27 28 27l329 0c16 0 27-12 27-27z m74 100c0-15-12-27-28-27l-27 0 0 238c0 25-20 45-46 45l-283 0 0 46c0 16 11 28 27 28l329 0c16 0 28-12 28-28z m-183 101c25 0 45 20 45 46 0 25-20 45-45 45-26 0-46-20-46-45 0-26 20-46 46-46z m0 73c15 0 27-12 27-27 0-16-12-28-27-28-16 0-28 12-28 28 0 15 12 27 28 27z m11-151c-11 9-29 9-41 0l-34-28-63 63c-11 11-29 11-40 1l-87-80c-3-3-3-9 0-12 3-4 9-4 12-1l87 79c4 4 10 4 14 0l124-124c2-2 5-3 7-3 2 0 4 1 6 3 4 4 4 9 0 13l-47 47 32 28c5 3 13 3 17 0l77-63c2 0 3-1 5-1 3 0 6 1 7 3 3 4 3 10-1 13z"/>
<glyph glyph-name="phone" unicode="&#57361;" d="M371 6c-47 0-140 15-246 118-63 61-103 127-117 196-11 50-5 87-1 99-2 9 0 17 4 26 9 15 30 40 42 51 20 17 38 14 53-7l81-110c11-15 8-36-7-47l-40-30c-2-2-5-3-8-4-4-23 21-61 72-113 53-53 85-54 97-52 0 4 1 7 2 11l30 41c6 8 16 13 27 13 7 0 14-2 20-6l112-76c11-8 17-15 18-25 1-9-2-18-9-28-11-13-35-35-51-43-7-5-16-7-23-7-11-3-30-7-56-7z m-293 482c-4 0-8-2-13-6-10-10-29-34-37-47-2-5-4-10-3-15 0-1 0-3 0-4-4-14-32-139 113-279 102-97 189-112 233-112 27 0 44 5 48 7 2 1 4 1 6 1 5-1 9 1 15 4 13 8 36 27 45 39 5 6 7 10 6 13-1 4-4 8-10 12l-112 76c-7 5-16 3-21-3l-28-39c0-1 0-3 0-4 0-2 0-4 0-5 0-3-2-6-5-7-4-1-11-3-20-3-21 0-56 10-104 58-64 63-88 106-76 137 1 3 4 5 6 6 1 0 2 0 3 1 1 0 4 1 5 1l40 30c6 5 7 14 2 21l-80 108c-8 10-11 10-13 10z m329-250c-4 0-8 3-10 7-22 73-80 130-153 152-5 2-8 7-7 12 2 4 7 7 11 6 80-24 142-86 166-165 2-4-1-10-6-12 1 1 0 0-1 0z m74-4c-5 0-9 3-10 8-20 111-104 200-214 225-5 1-9 7-7 12 1 5 7 8 12 6 117-26 207-121 228-239 1-5-3-11-7-12 0 0-1 0-2 0z m-354 63c-2 0-4 1-6 2-2 2-29 21-39 35-2 4-1 10 3 13 5 3 11 2 14-3 4-7 23-23 34-30 4-3 4-10 2-13-2-2-5-4-8-4z m303-281c0 0-2 0-3 1-4 2-38 16-50 31-2 4-2 11 2 14 4 2 11 2 14-2 6-9 29-20 42-26 5-2 7-7 5-12-2-4-6-6-10-6z"/>
<glyph glyph-name="mosque2" unicode="&#57365;" d="M104 168c-21 0-38-21-38-48l0-44c0-6 4-10 10-10l57 0c5 0 9 4 9 10l0 45c0 26-17 47-38 47z m19-83l-38 0 0 36c0 16 9 29 19 29 11 0 19-13 19-29z m285 83c-21 0-38-21-38-48l0-44c0-6 4-10 9-10l57 0c6 0 10 4 10 10l0 45c0 26-17 47-38 47z m19-83l-38 0 0 36c0 16 8 29 19 29 10 0 19-13 19-29z m85 361c0 2-2 5-4 7-1 5-3 10-5 14l-13 32c-5 11-13 13-16 13-3 0-11-1-17-12l-11-24c-4-7-7-17-8-26-1-1-2-2-2-4 0-1 0-2 0-2 0-3 0-5 0-8l0-208-57 0 0 85c0 48-40 99-114 104l0 29c0 5-3 9-9 9-6 0-9-4-9-9l0-29c-74-4-114-55-114-104l0-85-57 0 0 208c0 2 0 5 0 8 0 0 0 1 0 2 0 2-1 3-2 4-2 10-5 19-8 26l-11 24c-4 7-10 11-17 11-7 0-13-5-17-12l-12-23c-3-7-6-16-7-26-1-1-2-2-2-4 0-1 0-2 0-2 0-3 0-6 0-8l0-408c0-16 12-28 28-28l171 0c6 0 10 4 10 9l0 105c0 26 20 47 47 47 27 0 47-21 47-47l0-105c0-5 4-9 10-9l171 0c16 0 28 12 28 28l0 399c0 3-1 9-1 14 0 2 1 3 1 5z m-49 21l10 22 13-30c1-1 1-3 2-4l-29 0c0 5 2 10 4 12z m-8-31l37 0c1-4 1-6 1-9l0-201c-3 1-6 2-9 2l-29 0z m-199-38c47 0 98-26 103-76l-206 0c5 50 56 76 103 76z m-104-95l208 0 0-75-208 0z m-124-75c-3 0-6-1-9-2l0 210 38 0 0-208z m-1 239l11 24 11-23c2-3 4-8 5-13l-32 0c1 5 3 10 5 12z m466-439c0-5-4-9-9-9l-162 0 0 95c0 37-29 66-66 66-37 0-66-29-66-66l0-95-162 0c-5 0-9 4-9 9l0 171c0 6 4 10 9 10l456 0c5 0 9-4 9-10z"/>
<glyph glyph-name="mosque" unicode="&#57366;" d="M114 190c0 23-15 40-29 55-10 11-19 20-19 30 0 6-3 9-9 9-6 0-10-3-10-9 0-10-8-19-19-30-13-16-28-32-28-55 0-22 11-35 12-35-2-4-3-8-3-13l0-114c0-16 13-28 29-28l38 0c16 0 28 12 28 28l0 114c0 5-1 9-3 13 1 0 13 13 13 35z m-71 42c4 6 10 11 14 17 4-5 9-11 14-17 12-13 24-25 24-42 0-15-7-22-7-22-4 2-7 3-12 3l-38 0c-5 0-9-1-12-3 0 0-7 7-7 22 0 17 11 29 24 42z m42-204c0-5-3-9-9-9l-38 0c-6 0-10 4-10 9l0 114c0 6 4 10 10 10l38 0c6 0 9-4 9-10z m266 237l-190 0c-16 0-28-12-28-28l0-209c0-16 12-28 28-28l57 0c6 0 10 4 10 9l0 143c0 21 13 38 28 38 15 0 28-17 28-38l0-143c0-5 4-9 10-9l57 0c16 0 28 12 28 28l0 209c0 16-12 28-28 28z m9-237c0-5-3-9-9-9l-48 0 0 133c0 31-20 57-47 57-27 0-47-26-47-57l0-133-48 0c-6 0-9 4-9 9l0 209c0 6 3 10 9 10l190 0c6 0 9-4 9-10z m140 127c1 0 12 13 12 35 0 23-15 40-28 55-11 11-19 20-19 30 0 6-4 9-10 9-6 0-9-3-9-9 0-10-9-19-19-30-14-16-29-32-29-55 0-22 12-35 13-35-2-4-3-8-3-13l0-114c0-16 12-28 28-28l38 0c16 0 29 12 29 28l0 114c0 5-1 9-3 13z m-59 77c5 6 10 12 14 17 4-5 10-11 14-17 13-13 24-25 24-42 0-15-7-22-7-22-3 2-7 3-12 3l-38 0c-5 0-8-1-12-3 0 0-7 7-7 22 0 17 12 29 24 42z m43-204c0-5-4-9-10-9l-38 0c-6 0-9 4-9 9l0 114c0 6 3 10 9 10l38 0c6 0 10-4 10-10z m-160 408c-28 24-59 48-59 67 0 5-3 9-9 9-6 0-9-4-9-9 0-18-30-43-59-67-36-29-74-61-74-95 0-42 22-55 24-56 1-1 2-1 4-1l228 0c2 0 3 0 4 1 2 1 24 14 24 56 0 34-38 66-74 95z m43-133l-222 0c-4 3-12 14-12 38 0 26 36 55 67 81 23 18 44 36 56 54 12-18 33-35 56-54 31-26 67-55 67-81 0-24-8-35-12-38z"/>
<glyph glyph-name="receptionist" unicode="&#57369;" d="M237 128c-2 1-6 1-8 0-8 8-7 14-7 21 0 1 0 1 0 2 5 4 9 9 13 16 1 1 2 4 3 6 4 7 9 13 12 22 4 2 8 6 10 10 7 14 13 38 9 49-1 4-4 7-7 9-1 42-21 76-53 89-7 3-18 7-33 11-5 1-8 3-8 4-1 2-2 3-4 5-2 2-5 2-8 2-7-2-13-11-14-16-1-1-1-2-2-4-10-2-22-7-25-20 0-1-1-2-1-4-12-13-23-34-24-67-3-1-6-4-8-9-4-11 2-35 9-49 3-5 7-8 10-10 4-9 8-15 13-22 1-2 2-4 3-5 5-8 10-13 14-17 1-9 1-16-3-22-3 1-5 1-8 0-23-9-101-50-109-77-4-18-6-28-6-28 0-1 0-1 0-2 0-10 5-15 9-17 7-5 13-5 19-5l279 0c2 0 4 0 5 0 2 0 4 0 6 0 20 0 23 11 23 20 0 7-1 11-6 31-6 23-70 63-103 77z m-1-20l-26-43-18 17 42 27c1 0 2-1 2-1z m-105 74c-4 8-8 13-12 23-1 4-4 5-8 5 0 0-1 0-2 1-6 11-8 31-8 31 2 0 4 3 6 5 2 2 3 5 3 8-1 30 7 54 24 68 3 2 4 6 3 9 5 2 12 2 12 2l1 10 7 5c0 0 0-1 0-1 0 0 0 1 0 1 4-3 9-5 12-5 14-4 24-8 30-11 28-11 43-40 42-79 0-3 1-5 3-6 2-2 4-3 6-3 0-6-1-22-8-33-1-1-1-2-2-2-4-1-6-2-7-5-4-10-8-16-12-23-1-1-3-4-4-6-4-7-8-11-11-14-2-2-4-5-4-7 0-1 0-3 0-4-1-8-3-21 9-35l-35-23-32 24c10 12 9 26 8 34 0 1 0 3 0 3 0 2-2 6-4 7-5 3-8 7-12 14-2 4-3 6-5 7z m-7-73l40-29-22-17-27 42c3 2 6 3 9 4z m205-90c-1 0-6 0-11 0-1 0-4 0-6 0l-270 0c-2 0-4 0-5 0l-4 0c-6 0-8 1-8 0 0 0 0 0 0 1 1 2 3 12 7 26 2 10 35 33 67 50l34-52c2-2 4-4 7-4 1 0 1 0 2 0 1 0 3 1 5 2l33 26 28-25c1-2 4-3 7-2 3 0 6 2 7 5l32 53c34-19 67-45 70-54 6-20 6-22 6-26-1 1-1 0-1 0z m57 486c-64 0-116-43-117-98 0-34 12-58 41-77 0-8-5-19-20-34l-1-1c-3-3-4-6-2-10 2-4 4-6 8-6 0 0 1 0 1 0 32 3 63 24 72 31l1 0c4-1 14-2 17-2 65 0 118 45 118 100 0 53-53 97-118 97z m0-177c-2 0-14 1-15 1-1 0-2 0-3 0l-4-1c-2 0-3-1-5-2 0 0-16-13-37-22 7 11 8 21 8 30 0 1 0 2-1 2 0 1-1 3-5 7 0 0-1 1-1 1-24 16-34 35-34 63 0 44 44 80 98 80 54 0 99-36 99-80-1-44-46-79-100-79z m-37 91l-19 0c-5 0-9-4-9-9 0-6 4-10 9-10l19 0c6 0 9 4 9 10 0 5-3 9-9 9z m47 0l-19 0c-6 0-9-4-9-9 0-6 3-10 9-10l19 0c5 0 9 4 9 10 0 5-4 9-9 9z m46 0l-18 0c-6 0-10-4-10-9 0-6 4-10 10-10l18 0c6 0 9 4 9 10 0 5-3 9-9 9z m-167-372l-28 0c-6 0-10-4-10-10 0-5 4-9 10-9l28 0c5 0 9 4 9 9 0 6-4 10-9 10z"/>
<glyph glyph-name="money-exchange" unicode="&#57372;" d="M375 162c79 17 137 87 137 168 0 95-77 173-172 173-79 0-148-54-168-132-2-9-4-18-4-27-89-7-159-81-159-172 0-95 78-172 173-172 90 0 164 70 171 159 7 0 15 1 22 3z m-35 322c84 0 153-69 153-154 0-72-51-135-122-149-5-1-12-2-17-3-1 19-5 38-11 56 1 0 1 0 1 0 6 0 10 3 10 9l0 4c19 2 38 13 44 32 5 13 4 25 0 36-8 11-21 20-44 29l0 59c13-3 24-8 30-17 2-4 8-5 13-2 4 2 5 8 2 13-8 13-26 22-45 25l0 6c0 6-4 10-10 10-5 0-9-4-9-10l0-5c-21-2-38-12-46-26-7-12-7-23-3-34 4-10 16-24 45-33 1 0 2 0 3 0l0-67c-2 0-4 0-4 1-1 0-3 0-4 0-30 47-81 79-140 80 1 8 2 16 4 24 18 68 79 116 150 116z m-5-135c-17 5-28 12-32 21-1 5-1 11 2 16 5 10 16 15 30 17z m19-25c14-6 23-12 27-19 3-5 3-12 0-20-4-11-15-18-27-21z m-172-305c-85 0-154 69-154 153 0 85 69 154 154 154 84 0 153-69 153-154 0-84-69-153-153-153z m-131 312c1 0 1 0 2 0 5 0 8 3 9 8 10 47 43 86 88 104l-17-24c-3-5-2-10 3-13 2-1 4-2 6-2 2 0 5 2 7 4l32 48c1 3 1 6 1 9-1 2-4 4-7 5l-58 13c-4 1-10-2-11-7-1-5 2-11 8-11l26-6c-50-20-86-64-96-116-1-6 2-11 7-12z m421-155c-5 1-10-2-11-8-10-47-43-86-88-104l17 24c3 5 2 11-3 13-4 3-10 2-13-2l-32-48c-2-3-2-5-1-8 1-3 3-5 6-6l58-13c1 0 1 0 2 0 4 0 8 3 9 8 1 4-2 10-7 11l-26 5c49 21 85 65 95 117 2 5 0 10-6 11z m-281 66c13 0 25-5 36-14 4-4 10-3 13 1 4 4 3 10-1 13-14 12-30 18-47 18-37 0-67-28-77-65l-22 0c-5 0-9-4-9-10 0-5 4-9 9-9l19 0c0-2 0-3 0-5 0-4 0-9 1-14l-20 0c-5 0-9-3-9-9 0-6 4-9 9-9l24 0c12-33 40-56 74-56 18 0 34 6 47 18 4 3 5 9 1 13-3 3-9 4-13 0-10-9-23-13-36-13-23 0-44 14-53 37l58 0c6 0 10 3 10 9 0 6-4 9-10 9l-64 0c-1 7-1 12-1 16 0 2 0 3 0 5l65 0c6 0 10 4 10 9 0 6-4 9-10 9l-61 0c8 27 31 47 57 47z"/>
<glyph glyph-name="mobile2" unicode="&#57377;" d="M242 74l-37 0c-6 0-10-3-10-9 0-5 4-9 10-9l37 0c6 0 9 4 9 9 0 6-3 9-9 9z m215 184l-189 116c-4 2-7 2-10-1-3-3-5-6-4-10l62-214c1-4 4-7 8-7 0 0 1 0 1 0 4 0 6 2 8 6l38 76 1 0 0-94-298 0 0 289 298 0 0-84c0-5 4-9 10-9 5 0 9 4 9 9l0 121c0 26-20 47-47 47l-242 0c-26 0-46-21-46-47l0-409c0-27 20-47 46-47l242 0c27 0 47 20 47 47l0 182 63 12c4 1 7 4 8 8 1 2-1 7-5 9z m-355 226l242 0c16 0 28-12 28-28l0-18-298 0 0 18c0 16 13 28 28 28z m242-465l-242 0c-15 0-28 12-28 28l0 65 298 0 0-65c0-16-12-28-28-28z m19 223c-3-1-6-3-6-5l-29-58-49 167 149-92z"/>
<glyph glyph-name="mobile" unicode="&#57378;" d="M377 503l-242 0c-26 0-47-21-47-47l0-409c0-27 21-47 47-47l242 0c26 0 47 20 47 47l0 409c0 26-21 47-47 47z m-270-84l298 0 0-289-298 0z m28 65l242 0c16 0 28-12 28-28l0-18-298 0 0 18c0 16 12 28 28 28z m242-465l-242 0c-16 0-28 12-28 28l0 65 298 0 0-65c0-16-12-28-28-28z m-102 65l-38 0c-5 0-9-4-9-10 0-5 4-9 9-9l38 0c5 0 9 4 9 9 0 6-4 10-9 10z"/>
<glyph glyph-name="paper-pencil" unicode="&#57382;" d="M400 419c-4 4-9 4-13 0l-27-25 0 90c0 16-12 28-28 28l-192 0c-13 0-29-8-39-17l-76-85c-9-10-16-28-16-40l0-342c0-16 13-28 29-28l294 0c16 0 28 12 28 28l0 219c0 1-1 2-1 4l98 96c4 4 4 10 0 13z m-284 63c3 3 10 7 17 9l0-93c0-5-4-9-10-9l-89 0c2 3 3 5 5 7z m225-454c0-5-3-9-9-9l-294 0c-6 0-10 4-10 9l0 342 95 0c16 0 29 12 29 28l0 95 180 0c6 0 9-4 9-9l0-105c0-1 0-2 1-3l-139-132c-1-1-2-3-3-4l-28-85c-1-4 0-7 2-10 1-2 4-3 6-3 1 0 2 0 3 0l90 26c2 0 3 1 4 3l64 63z m-137 166c6-6 14-14 21-20l-31-8z m61-8l-18-6c-12 10-29 25-32 31-1 2-2 3-4 4l6 16 176 167 43-44z m183 288c-3 1-7 0-9-3l-28-28c-4-4-4-10 0-13 3-4 9-4 13 0l24 24c11-4 36-15 42-45l-25-26c-4-4-4-9 0-13 1-2 4-3 6-3 3 0 5 1 7 3l28 28c2 2 3 5 3 8-6 45-43 64-61 68z"/>
<glyph glyph-name="message" unicode="&#57383;" d="M256 492c-135 0-247-92-248-207-1-70 27-120 88-163 1-1 2-2 3-3 2-26-15-56-48-88l-3-3c-2-1-3-5-1-9 1-3 4-5 8-5 0 0 1 0 1 0 70 5 141 57 154 66l6 1c8-1 31-3 40-3 136 0 248 93 248 207 0 114-112 207-248 207z m-1-395c-8 0-33 2-37 3-1 0-2 0-3 0l-9-2c-2 0-3-1-5-2-1-1-58-46-121-60 27 30 40 59 36 87 0 0 0 1-1 1 0 1-2 4-8 10 0 0-1 1-1 1-57 41-81 84-80 149 1 105 105 190 230 190 126 0 229-85 229-189 0-103-103-188-230-188z m-104 218c-20 0-37-16-37-36 0-20 17-37 37-37 20 0 36 17 36 37 0 20-16 36-36 36z m0-54c-10 0-18 8-18 18 0 10 8 18 18 18 10 0 18-8 18-18 0-10-8-18-18-18z m100 54c-20 0-36-16-36-36 0-20 16-37 36-37 21 0 37 17 37 37 0 20-16 36-37 36z m0-54c-10 0-18 8-18 18 0 10 8 18 18 18 10 0 19-8 19-18 0-10-9-18-19-18z m101 54c-20 0-37-16-37-36 0-20 17-37 37-37 20 0 37 17 37 37 0 20-17 36-37 36z m0-54c-10 0-18 8-18 18 0 10 8 18 18 18 10 0 18-8 18-18 0-10-8-18-18-18z"/>
<glyph glyph-name="megaphone" unicode="&#57384;" d="M512 270c0 29-16 52-47 56l0 162c0 6-4 10-10 10l-38 0c-3 0-6-2-7-4-102-138-163-138-220-138l-105 0c-41 0-76-35-76-76l0-19c0-42 35-76 76-76l105 0c57 0 118 0 220-139 1-2 4-3 7-3l38 0c6 0 10 3 10 9l0 162c31 4 47 28 47 56z m-484-9l0 19c0 31 26 57 57 57l95 0 0-133-95 0c-31 0-57 25-57 57z m418-199l-24 0c-100 134-166 142-223 142l0 133c57 0 123 7 223 142l24 0z m19 171l0 74c20-4 28-19 28-37 0-18-8-34-28-37z m-266-171l-7 5c-7 5-13 16-14 24l-7 76c-1 5-5 8-11 8-5-1-9-4-8-10l7-76c1-13 11-29 21-37l8-6c6-4 11-13 11-18 0-1-4-4-9-4l-76 0c-6 0-12 4-13 10l-16 133c-1 5-5 8-10 8-5-1-9-5-9-10l17-133c2-15 16-27 31-27l76 0c16 0 28 10 28 23 0 11-8 25-19 34z m-47 256l-57 0c-1 0-14 0-26-13-4-3-4-9 0-13 2-2 4-3 7-3 3 0 5 1 6 3 7 7 13 7 13 7l57 0c5 0 9 3 9 9 0 6-4 10-9 10z"/>
<glyph glyph-name="magnifier" unicode="&#57389;" d="M382 321c0 103-84 186-187 186-102 0-186-83-186-186 0-102 84-186 186-186 103 0 187 84 187 186z m-187-167c-92 0-167 75-167 167 0 92 75 168 167 168 93 0 168-76 168-168 0-92-75-167-168-167z m-33 293c-57-15-97-66-97-126 0-23 6-45 18-65 2-3 5-5 8-5 2 0 3 0 5 1 5 3 5 9 4 13-10 17-15 37-15 56 0 51 34 95 83 108 4 1 8 7 6 11-2 6-6 9-12 7z m335-366l-106 107c-10 10-29 10-39 0l-20-20c-5-5-8-12-8-19 0-8 3-15 8-20l107-107c7-6 17-10 27-10 5 0 11 1 14 3l2 1 24 24 1 2c3 11 0 29-10 39z m-8-32l-19-18c-5-2-14 0-19 3l-107 107c-1 2-2 4-2 7 0 3 1 5 2 7l20 19c2 2 4 3 7 3 2 0 4-1 6-3l107-106c5-5 7-13 5-19z"/>
<glyph glyph-name="location2" unicode="&#57390;" d="M249 117c2-2 5-3 7-3 3 0 6 1 7 3 2 3 80 92 123 189 9 20 14 41 14 62 0 80-64 144-145 144-80 0-145-64-145-144 0-22 5-43 14-62 43-97 122-186 125-189z m6 376c69 0 126-56 126-125 0-19-4-36-12-54-34-78-93-153-113-177-21 25-80 99-114 178-7 17-12 35-12 53 0 69 56 125 125 125z m0-191c38 0 68 30 68 68 0 38-30 68-68 68-38 0-68-30-68-68 0-38 31-68 68-68z m0 117c28 0 49-22 49-49 0-28-21-50-49-50-27 0-49 22-49 50 0 27 23 49 49 49z m248-407l-57 218c-1 3-3 6-6 7l-47 19-7-18 43-17 50-194-95 48c-3 1-6 1-9 0l-119-55-119 55c-3 1-6 1-9 0l-95-48 50 194 43 17-7 18-47-19c-3-1-5-4-6-7l-57-218c0-3 0-7 3-9 3-2 7-3 11-1l110 54 119-55c3-1 6-1 8 0l119 55 110-55c1-1 2-1 4-1 2 0 4 1 6 2 3 3 4 7 4 10z"/>
<glyph glyph-name="shop" unicode="&#57397;" d="M507 354l0 84c0 36-29 65-65 65l-372 0c-36 0-65-29-65-65l0-84c0-19 7-35 19-47-1-3-1-6-1-9l0-251c0-27 21-47 47-47l372 0c26 0 47 20 47 47l0 251c0 3 0 5-1 8 0 0 0 1 0 1 12 12 19 28 19 47z m-65 130c26 0 47-20 47-46l0-84c0-26-21-47-47-47l-9 0c-26 0-47 21-47 47l0 130z m-74 0l0-130c0-26-21-47-47-47l-9 0c-26 0-47 21-47 47l0 130z m-121 0l0-130c0-26-21-47-47-47l-9 0c-26 0-47 21-47 47l0 130z m-224-130l0 84c0 26 21 46 47 46l56 0 0-130c0-26-21-47-47-47l-9 0c-26 0-47 21-47 47z m75-335l0 204 102 0 0-204z m372 28c0-16-12-28-28-28l-223 0 0 214c0 5-4 9-10 9l-121 0c-5 0-9-4-9-9l0-214-9 0c-16 0-28 12-28 28l0 248c8-4 18-6 28-6l9 0c23 0 45 13 56 31 11-18 33-31 56-31l9 0c23 0 45 13 56 31 11-18 33-31 56-31l9 0c23 0 45 13 56 31 11-18 33-31 56-31l9 0c10 0 20 2 28 6z m-46 195l-149 0c-6 0-10-4-10-9l0-140c0-5 4-9 10-9l149 0c5 0 9 4 9 9l0 140c0 5-4 9-9 9z m-10-140l-130 0 0 121 130 0z m-270 28l-18 0c-6 0-10-3-10-9 0-6 4-9 10-9l18 0c6 0 10 3 10 9 0 6-4 9-10 9z"/>
<glyph glyph-name="suitcase" unicode="&#57402;" d="M457 434l-114 0c-3 0-10 5-13 11l-13 30c-5 13-20 23-34 23l-64 0c-13 0-28-10-33-22l-13-30c-3-6-9-11-13-11l-105 0c-26 0-46-20-46-46l0-292c0-26 20-46 46-46l402 0c26 0 46 20 46 46l0 292c0 25-20 45-46 45z m-268 4l13 30c3 7 11 12 17 12l64 0c7 0 15-5 18-11l13-30c1-2 1-3 1-4l-128 0c1 0 1 2 2 3z m-134-22l402 0c16 0 28-12 28-27l0-64-458 0 0 64c0 15 12 27 28 27z m402-347l-402 0c-16 0-28 11-28 27l0 210 458 0 0-210c0-16-12-27-28-27z m-320-37l-55 0c-5 0-9-4-9-9 0-6 4-9 9-9l55 0c6 0 9 3 9 9 0 5-3 9-9 9z m293 0l-55 0c-6 0-9-4-9-9 0-6 3-9 9-9l55 0c5 0 9 3 9 9 0 5-4 9-9 9z m-293 256c-5 0-9-4-9-9l0-183c0-5 4-9 9-9 6 0 9 4 9 9l0 183c0 5-3 9-9 9z m238 0c-6 0-9-4-9-9l0-183c0-5 3-9 9-9 5 0 9 4 9 9l0 183c0 5-4 9-9 9z"/>
<glyph glyph-name="support" unicode="&#57414;" d="M482 67c-7 21-40 38-72 54-9 5-17 9-24 13-5 3-11 1-13-4-3-5-1-11 3-13 8-4 17-9 25-14 25-12 59-30 63-42 8-27 8-31 8-38 0-3-1-4-1-4-2-1-10 0-16 0-3 0-6 0-9 0l-380 0c-2 0-4 0-6 0-7 0-17 0-19 2-1 1-1 2-1 4 1 3 4 16 9 38 5 17 47 40 125 71 2 1 19 6 29 19 3 3 2 10-2 13-4 3-10 2-13-2-5-7-16-11-20-13-64-25-130-54-138-84-6-26-9-39-9-40 0 0 0 0 0-1 0-8 2-14 6-18 8-9 20-8 30-8l408 0c9 0 14 1 20 7 4 3 6 10 6 18 0 9-1 15-9 42z m-368 161l19 0c5 0 9 1 13 4 6 6 6 15 6 22l0 1c2-1 3-2 4-3 5-12 12-22 18-31 1-3 3-6 5-9 8-12 15-20 23-26 1-1 26-21 54-21 1 0 3 0 5 0 9 0 28 3 52 22 7 5 14 13 21 25 2 3 4 6 5 9 6 9 13 19 18 32 0 1 2 1 3 2l0-1c0-7 0-16 6-22 1-1 3-2 4-3-1-22-7-65-28-73-4 3-10 5-16 5-2 0-5 0-6-1l-47-11c-15-4-25-19-21-34 3-14 14-22 28-22 2 0 4 0 6 1l47 11c15 4 24 19 21 34 0 0 0 1 0 1 29 15 34 65 35 87l9 0c13 0 32 9 38 23 12 28 12 59 0 87-6 10-17 19-28 21-2 86-70 154-152 154-82 0-150-68-152-153-11-2-23-10-28-21-12-28-12-59 0-87 6-14 25-23 38-23z m215-104l-46-11c-5-1-11 2-12 6-1 5 2 11 7 12l46 11c1 0 2 0 2 0 5 0 9-3 10-7 1-4-2-10-7-11z m24 150c-1-3-4-4-5-4-4-1-7-3-8-5-4-14-10-23-17-33-2-3-3-5-5-9-6-10-12-16-17-20-25-20-42-18-43-18-1 0-1 0-2 0-22 0-43 17-44 17-6 5-12 11-18 21-2 3-3 6-5 8-7 11-13 19-17 33-1 3-5 5-9 6-1 0-4 2-5 4-2 3-4 5-7 5l0 34c4 0 9 3 9 7 0 0 1 30 14 60 17 39 44 59 83 59 95 0 95-111 95-116 0-5 7-9 7-9l0-34c-2-1-4-2-6-6z m66 55c11-23 11-48 0-70-3-7-14-12-21-12l-19 0c0 1 0 5 0 7l0 79c0 3 0 5 0 7l19 0c7 1 18-4 21-11z m-163 164c72 0 130-59 133-133l-10 0c-4 0-7-1-11-3-8 40-32 101-109 101-77 0-104-64-112-104 0 0-1 1-1 1-4 3-8 5-13 5l-10 0c3 74 61 133 133 133z m-163-164c3 7 14 12 21 12l19 0c0-2 0-5 0-7l0-79c0-3 0-6 0-8l-19 0c-7 0-18 6-21 13-11 21-11 47 0 69z"/>
<glyph glyph-name="video-camera" unicode="&#57424;" d="M457 475l-119 0c-25 0-45-20-45-45l0-46-19 0 0 46c0 25-20 45-45 45l-174 0c-26 0-46-20-46-45l0-110c0-26 20-46 46-46l174 0c25 0 45 20 45 46l0 46 19 0 0-284c0-25 20-45 45-45l119 0c26 0 46 20 46 45l0 348c0 25-20 45-46 45z m-430-146l0 92 229 0 0-92z m28 128l174 0c11 0 22-7 25-18l-225 0c4 11 14 18 26 18z m174-164l-174 0c-12 0-22 7-26 18l225 0c-3-11-14-18-25-18z m82 137c0 15 12 27 27 27l119 0c16 0 28-12 28-27l0-256-174 0z m146-375l-119 0c-15 0-27 12-27 27l0 73 174 0 0-73c0-15-12-27-28-27z m-59 201c37 0 68 31 68 69 0 37-31 68-68 68-38 0-69-31-69-68 0-38 31-69 69-69z m0 119c27 0 50-23 50-50 0-28-23-51-50-51-28 0-51 23-51 51 0 27 23 50 51 50z m-28-60c6 0 9 4 9 10 0 10 9 18 19 18 5 0 9 4 9 9 0 5-4 9-9 9-20 0-37-16-37-36 0-6 5-10 9-10z m-13-214l-19 0c-5 0-9-4-9-10 0-5 4-9 9-9l19 0c5 0 9 4 9 9 0 6-4 10-9 10z"/>
<glyph glyph-name="tv" unicode="&#57428;" d="M484 427l-174 0 29 52c3 5 2 10-2 13-5 2-11 1-14-4l-35-61-56 0-63 81c-3 4-10 5-14 2-3-3-4-9-1-13l55-70-181 0c-16 0-28-13-28-29l0-313c0-16 12-28 28-28l219 0 0-38-76 0c-6 0-10-4-10-10 0-5 4-9 10-9l170 0c6 0 10 4 10 9 0 6-4 10-10 10l-76 0 0 38 219 0c16 0 28 12 28 28l0 313c0 16-12 29-28 29z m-456-19l456 0c5 0 9-4 9-10l0-246-474 0 0 246c0 6 4 10 9 10z m456-332l-456 0c-5 0-9 4-9 9l0 48 474 0 0-48c0-5-4-9-9-9z m-48 38l-19 0c-6 0-9-4-9-10 0-5 3-9 9-9l19 0c6 0 10 4 10 9 0 6-4 10-10 10z"/>
<glyph glyph-name="trees2" unicode="&#57433;" d="M506 99l-54 91 22 0c6 0 11 2 13 7 3 5 2 11-1 15l-52 82 12 0c5 0 11 3 13 8 3 4 2 10-2 16l-55 81c-3 5-8 9-13 9-5 0-10-4-14-9l-55-82c-4-5-4-11-2-15 2-5 7-8 13-8l11 0-52-82c-3-4-4-10-1-15 3-5 8-7 13-7l22 0-30-55-54 93 35 0c6 0 11 2 13 7 3 5 2 11-1 15l-67 110 25 0c5 0 11 3 13 8 3 5 2 10-2 15l-81 117c-6 9-20 9-26 0l-81-117c-4-5-4-10-2-15 3-5 8-8 14-8l24 0-67-110c-3-4-4-10-1-15 3-5 8-7 13-7l35 0-75-130c-2-5-2-11 0-16 2-3 7-6 13-6l101 0c6 0 10 4 10 9 0 6-4 10-10 10l-94 0 75 129c3 5 3 10 1 15-3 5-7 8-13 8l-35 0 68 110c3 4 4 10 1 15-3 4-7 7-14 7l-24 0 74 106 74-106-24 0c-5 0-11-3-13-7-3-5-2-11 1-15l68-110-35 0c-5 0-11-3-13-7-3-5-2-10 1-15l74-130-123 0c-11 0-20-10-20-21l0-65c0-5 3-9 9-9 6 0 10 4 10 9l0 65c0 1 1 2 1 2l130 0c0 0 0 0 1 0l38 0c6 0 10 4 10 9 0 6-4 10-10 10l-24 0c0 1-1 2-1 3l-11 19c1 1 2 2 3 2l38 68c3 5 3 10 0 15-4 4-8 7-14 7l-21 0 52 81c3 5 4 11 1 15-2 5-7 8-13 8l-11 0 49 70 48-70-10 0c-6 0-12-3-14-8-2-4-2-10 1-15l52-81-20 0c-6 0-11-3-14-8-2-5-2-10 1-15l53-91-97 0c-11 0-19-9-19-19l0-67c0-5 4-9 9-9 6 0 10 4 10 9l0 67 104 0c6 0 10 3 13 7 3 4 3 10 0 16z"/>
<glyph glyph-name="temple" unicode="&#57435;" d="M509 16l-19 19c-2 2-4 3-6 3l-456 0c-2 0-4-1-6-3l-19-19c-4-4-4-9 0-13 4-4 9-4 13 0l16 16 448 0 16-16c2-2 5-3 7-3 2 0 4 1 6 3 4 4 4 9 0 13z m-420 41l334 0 16-16c2-2 5-3 7-3 2 0 4 1 6 3 4 4 4 9 0 13l-19 19c-2 2-3 3-6 3l-10 0 0 104 48 0c28 0 28 18 28 19 0 6-4 10-9 10-5 0-9-3-10-8-1-1-3-2-9-2-32 0-49 41-49 42-1 4-5 6-8 6l-29 0 0 47 38 0c29 0 29 18 29 19 0 6-4 9-10 9-5 0-8-2-9-7-1-1-3-2-10-2-31 0-48 41-48 42-1 3-5 5-9 5l-9 0 0 33c11-3 24-4 38-4 5 0 9 4 9 9 0 6-4 10-9 10-105 0-123 93-124 96 0 4-4 8-9 8-5 0-9-3-9-7 0-1-28-97-124-97-5 0-9-4-9-10 0-5 4-9 9-9 14 0 27 2 38 4l0-33-9 0c-4 0-8-2-9-5 0 0-17-42-48-42-7 0-9 1-10 2-1 5-4 7-9 7-6 0-10-3-10-9 0-1 0-19 29-19l38 0 0-47-29 0c-3 0-7-2-8-6 0 0-17-42-49-42-6 0-8 1-9 2-1 5-5 8-10 8-5 0-9-4-9-10 0-1 0-19 28-19l48 0 0-104-10 0c-3 0-4-1-6-3l-19-19c-4-4-4-9 0-13 2-2 4-3 6-3 3 0 5 1 7 3z m195 19l-56 0 0 38c0 16 12 28 28 28 16 0 28-12 28-28z m-104 324c41 17 64 51 75 75 10-25 33-60 77-77 0 0 0 0 0-1l0-38-152 0 0 38c0 2 0 2 0 3z m-23-59l197 0c3-4 6-12 12-20-3-1-6-4-6-8l-208 0c0 4-3 7-7 8 6 8 10 16 12 20z m-5-47l208 0 0-47-208 0z m-62-95c11 11 17 22 20 29l291 0c4-7 10-18 20-29z m24-19l284 0 0-104-95 0 0 38c0 26-20 47-47 47-27 0-47-21-47-47l0-38-95 0z"/>
<glyph glyph-name="trees" unicode="&#57436;" d="M512 180c0 28-17 51-41 62 2 9 3 19 3 28 0 70-58 128-128 128-40 0-78-19-101-50-38 86-94 156-98 160-2 3-5 4-8 4-2 0-5-2-7-4-6-7-130-175-129-296 0-62 55-131 130-136l0-67c0-5 4-9 9-9 6 0 10 4 10 9l0 68c53 5 99 42 117 92 18-14 40-23 63-25l0-135c0-5 4-9 9-9 6 0 10 4 10 9l0 48 57 0c26 0 47 17 47 38l0 20c32 4 57 32 57 65z m-373-85c-66 0-118 63-118 117 0 98 92 236 118 274 28-36 119-164 119-274 0-62-55-117-119-117z m114 232c20 32 55 52 93 52 60 0 109-49 109-109 0-8-1-16-3-23-2 0-4 0-6 0-37 0-67-30-67-67 0-5 0-8 1-13-10-4-22-6-34-6-26 0-51 10-71 27 2 7 3 16 3 24-1 38-11 78-25 115z m155-251l-57 0 0 66c12 0 24 3 36 7 9-18 27-31 49-34l0-20c0-11-13-19-28-19z m38 57c-27 0-48 21-48 47 0 27 21 48 48 48 26 0 47-21 47-48 0-26-21-47-47-47z"/>
<glyph glyph-name="traveler2" unicode="&#57437;" d="M381 131c-2 7-6 13-11 18l-63 70 19 102c2 18-1 33-9 43-8 9-19 15-34 17-20 2-39-13-41-34l-17-128c-1-11 7-30 15-38l71-80 34-73c0-1 11-26 37-26 2 0 5 0 8 1 8 2 14 4 17 10 6 10 3 22 0 34z m11-110c-1-1-4-1-5-1-16-3-23 13-24 14l-35 75c0 1-1 2-2 2l-72 80c0 0-1 1-1 1-4 3-10 17-9 22l17 130c1 10 9 17 18 17 1 0 1 0 2 0 10-1 17-4 22-9 4-7 6-16 5-28l-19-106c-1-3 0-6 1-8l67-73c0 0 0-1 0-1 3-3 5-6 6-9l26-82 1-3c1-8 4-17 2-21z m-122 112c-5 3-10 1-13-4l-16-29-53-66c0 0-14-17-24-10-6 4-7 10-3 15l57 76c1 1 1 2 1 3l15 40c2 5-1 10-6 12-5 2-10-1-12-5l-14-39-57-76c-7-11-9-29 9-41 5-3 11-5 15-5 14 0 27 11 33 18l53 66c0 0 1 1 1 2l17 31c3 4 2 9-3 12z m153 95c-1 10-11 20-19 27l-47 45-12 10c-3 4-9 4-13 0-3-4-3-9 0-13l59-55c8-6 12-11 12-14 0 0 0-1-2-3-5-6-11-2-14 0l-51 38c-4 2-10 1-13-2-3-4-2-11 2-13l50-37c5-3 12-6 20-6 6 0 14 3 20 10 7 3 8 8 8 13z m-118 162c9 0 17 2 24 6 25 14 33 47 18 75-10 20-29 32-49 32-8 0-17-2-23-6-26-14-34-47-19-75 9-20 29-32 49-32z m-22 90c5 3 9 4 15 4 13 0 27-8 33-21 11-19 6-41-11-51-4-2-9-3-15-3-13 0-27 8-33 21-10 19-6 42 11 50z m-126-276c25 0 44 18 48 41l16 111c1 12-2 24-10 34-7 10-18 16-31 18-26 3-49-15-52-41-1-20-11-37-15-40-14-9-24-35-25-54l-2-14c-1-14 2-26 10-36 7-9 19-15 32-16l25-3c2 0 3 0 4 0z m-46 32c-5 5-7 13-6 20l1 14c2 20 11 37 17 41 14 8 23 34 25 55 1 14 13 24 27 24 1 0 2 0 4 0 7-1 14-5 18-10 5-6 7-13 6-21l-16-110c-2-15-17-27-32-26l-25 3c-8-1-15 3-19 10z"/>
<glyph glyph-name="tag" unicode="&#57439;" d="M491 486c-13 14-32 21-53 19l-139-13c-17-2-37-12-48-21l-228-228c-17-18-19-46-3-61l162-163c7-7 16-11 27-11 12 0 24 6 33 14l228 228c10 11 21 30 22 44l13 144c2 18-3 36-14 48z m-262-451c-6-5-13-8-20-8-4 0-10 1-14 6l-162 162c-9 8-7 24 3 35l38 37 193-193z m258 403l-14-143c-1-9-8-25-16-32l-177-177-193 194 177 178c8 7 25 14 37 16l138 14c2 0 4 0 6 0 13 0 24-5 33-14 7-9 11-22 9-36z m-87 9c-26 0-46-21-46-47 0-26 20-46 46-46 26 0 47 20 47 46 0 26-21 47-47 47z m0-75c-16 0-28 12-28 28 0 16 12 28 28 28 16 0 28-12 28-28 0-16-12-28-28-28z"/>
<glyph glyph-name="traveler" unicode="&#57440;" d="M478 75c-5 14-23 32-54 53l0 21c0 5-3 8-8 9l-46 10c-3 0-6 0-8-2-1-1-1-1-2-2-3 1-4 3-7 4-3 0-7 0-9-1l-88-71-78 69c-3 3-7 3-10 2-4-2-10-4-15-7-1 2-1 4-3 5-2 3-5 3-8 3l-46-10c-5-1-8-4-8-9l0-22c-32-20-50-38-54-53-6-26-9-38-9-39 0-1 0-1 0-1 0-8 2-14 7-18 6-6 15-7 26-7 2 0 3 0 6 0 2 0 5 0 7 0l372 0c3 0 6 0 8 0 3 0 6 0 8 0 8 0 17 1 22 7 5 4 7 10 7 18-1 9-2 14-10 41z m-73 66l0-76-28 0 0 82z m-235 6l79-71c2-2 4-2 7-2 2 0 4 0 6 1l88 71c3-1 6-3 8-4l0-114-204 0 0 113c5 1 11 4 16 6z m-35 0l0-82-28 0 0 76z m-72-119c-6 0-16 0-18 2-1 1-1 2-1 4 1 3 3 15 9 37 1 3 6 15 36 34l0-77-19 0c-2 0-5 0-7 0z m44 0l0 19 28 0 0-19z m270 0l0 19 28 0 0-19z m90 1c-2-2-10-1-16-1-2 0-5 0-9 0l-18 0 0 78c24-17 34-30 36-35 8-26 8-30 8-37 0-3 0-5-1-5z m-309 247c5-12 11-21 17-30 2-3 4-6 6-9 5-9 12-16 18-22-2-10-5-28-8-37l-1-2c-1-5 2-10 6-11 1 0 2 0 2 0 4 0 9 3 10 7l1 2c4 18 9 37 9 46 0 2-2 6-4 7-6 5-12 11-18 21-1 2-3 5-5 8-7 10-12 19-17 32-1 3-5 5-8 6-1 0-4 2-5 4-9 18-13 44-12 49 0 0 1 1 4 1 2 0 4 1 6 3 2 2 3 5 3 6-2 47 13 68 34 88 4 2 5 6 3 10 0 0 0 1 0 1 9 6 22 5 22 5l1 9 6 5c-1 2 1 4 3 8 5-5 12-7 18-9 20-6 33-11 42-15 43-17 62-49 60-102 0-3 1-5 3-7 2-2 3-3 6-3 2 0 3 0 3 0 2-5-2-31-11-49-1-3-4-4-5-4-3-1-6-3-7-5-5-13-10-23-17-32-2-3-4-6-6-9-5-10-11-16-15-20-2-2-4-5-4-7 0-12 4-36 6-48 1-5 7-7 12-6 4 1 7 6 6 11-3 9-5 28-6 39 5 5 11 12 16 21 2 3 4 6 6 9 6 9 12 18 17 31 5 2 9 7 13 12 11 20 16 53 13 65-2 4-6 8-10 11 0 57-24 94-71 112-9 4-24 10-44 15-9 3-13 7-14 8 0 3-2 4-4 6-2 2-4 2-7 2-9-2-15-12-18-19-1-3-2-6-2-9-12-2-29-7-34-25-1-2-1-3-1-5-17-17-32-41-32-84-7-3-10-9-12-11-4-13 2-45 13-65 3-8 8-13 13-15z"/>
<glyph glyph-name="desktop" unicode="&#97;" d="M465 503l-409 0c-26 0-47-21-47-47l0-307c0-26 21-47 47-47l409 0c27 0 47 21 47 47l0 307c0 26-20 47-47 47z m-409-19l409 0c16 0 28-12 28-28l0-242-465 0 0 242c0 16 12 28 28 28z m409-363l-409 0c-16 0-28 12-28 28l0 46 465 0 0-46c0-16-12-28-28-28z m-130-61l0 24-18 0 0-28c0-2 0-4 1-6l26-31-166 0 25 31c1 2 2 4 2 6l0 28-19 0 0-24-23-30c-6-7-7-14-4-21 3-6 9-9 18-9l167 0c9 0 15 4 18 9 3 7 2 13-4 21z"/>
<glyph glyph-name="clock" unicode="&#98;" d="M261 503c-139 0-252-113-252-252 0-138 113-251 252-251 138 0 251 113 251 251 0 139-113 252-251 252z m0-484c-129 0-233 104-233 232 0 129 104 233 233 233 128 0 232-104 232-233 0-128-104-232-232-232z m9 287l0 150c0 6-4 9-9 9-6 0-10-3-10-9l0-150c-18-3-32-17-36-36l-85 0c-5 0-9-4-9-9 0-6 4-10 9-10l85 0c5-21 23-37 46-37 26 0 46 21 46 47 0 22-16 41-37 45z m-9-73c-16 0-28 12-28 28 0 15 12 28 28 28 15 0 28-13 28-28 0-16-13-28-28-28z"/>
<glyph glyph-name="clipboard" unicode="&#99;" d="M424 438l-75 0c-1 0-1 0-1 0-3 11-12 18-22 18-3 0-9 5-12 11l-5 12c-6 13-20 24-34 24l-28 0c-14 0-29-11-35-24l-4-12c-3-6-10-11-13-11-10 0-18-7-21-18l-86 0c-26 0-46-21-46-47l0-344c0-27 20-47 46-47l336 0c26 0 46 20 46 47l0 344c0 26-20 47-46 47z m-229 0c12 0 25 10 30 23l5 12c2 5 10 11 17 11l28 0c6 0 15-6 16-11l5-12c1-2 1-3 2-5l-14 0c-6 0-9-4-9-9 0-6 3-9 9-9l37 0c1 0 1 0 2 0 1 0 2 0 3 0 2 0 4-4 4-10l0-9c0-6-3-9-9-9l-121 0c-5 0-9 3-9 9l0 9c0 6 3 10 4 10z m256-391c0-16-12-28-27-28l-336 0c-15 0-27 12-27 28l0 344c0 16 12 28 27 28l84 0c0-16 12-28 28-28l121 0c16 0 28 12 28 28l75 0c15 0 27-12 27-28z m-214 288l-93 0c-5 0-9-4-9-9l0-93c0-6 4-10 9-10l93 0c6 0 10 4 10 10l0 93c0 5-4 9-10 9z m-9-93l-74 0 0 75 74 0z m140 47l-75 0c-5 0-9-4-9-10 0-5 4-9 9-9l75 0c5 0 9 4 9 9 0 6-4 10-9 10z m-131-112l-93 0c-5 0-9-4-9-9l0-94c0-5 4-9 9-9l93 0c6 0 10 4 10 9l0 94c0 5-4 9-10 9z m-9-93l-74 0 0 74 74 0z m140 46l-75 0c-5 0-9-3-9-9 0-6 4-9 9-9l75 0c5 0 9 3 9 9 0 6-4 9-9 9z"/>
<glyph glyph-name="church3" unicode="&#100;" d="M428 209l-85 70c-9 7-27 14-40 14l-94 0c-13 0-31-7-40-14l-85-70c-10-9-18-25-18-38l0-143c0-16 13-28 29-28l104 0c6 0 10 4 10 9l0 105c0 26 20 47 47 47 27 0 47-21 47-47l0-105c0-5 4-9 10-9l104 0c16 0 29 12 29 28l0 143c0 13-8 29-18 38z m-1-181c0-5-4-9-10-9l-95 0 0 95c0 37-29 66-66 66-37 0-66-29-66-66l0-95-95 0c-6 0-10 4-10 9l0 143c0 7 6 19 12 23l84 71c7 5 19 9 28 9l94 0c9 0 21-5 28-9l84-71c6-4 12-16 12-23z m-237 275l132 0c3 0 5 1 7 3 1 1 12 14 12 35 0 41-52 70-76 82l0 42 19 0c6 0 10 3 10 9 0 6-4 10-10 10l-19 0 0 19c0 5-3 9-9 9-6 0-9-4-9-9l0-19-19 0c-6 0-10-4-10-10 0-6 4-9 10-9l19 0 0-42c-24-12-76-41-76-82 0-21 11-34 12-35 2-2 4-3 7-3z m66 104c44-23 66-45 66-66 0-9-2-15-4-19l-124 0c-2 4-4 10-4 19 0 21 22 43 66 66z"/>
<glyph glyph-name="wi-fi" unicode="&#101;" d="M215 124c5-19 23-34 44-34 25 0 46 20 46 45 0 25-21 46-46 46-21 0-38-15-44-34-1-3-1-7-1-12 0-4 0-9 1-11z m43 34c13 0 23-10 23-23 0-12-10-22-23-22-12 0-22 10-22 22 0 13 10 23 22 23z m-230 97c46 86 134 141 231 141 93 0 179-49 226-129 3-5 10-6 16-4 5 3 6 10 4 16-51 85-144 140-244 140-106 0-203-59-252-154-1-1-1-3-1-6 0-4 2-8 6-10 5-2 12 0 14 6z m65-34c32 62 96 101 166 101 66 0 128-35 162-92 3-6 10-7 16-5 6 4 7 11 4 16-37 64-106 104-180 104-79 0-151-43-187-114-1-1-1-3-1-6 0-4 2-8 6-10 5-1 12 0 14 6z m66-33c20 37 58 61 102 61 39 0 77-21 97-56 4-5 11-6 16-3 6 3 7 10 4 16-25 41-70 67-117 67-52 0-98-28-122-74-1-1-1-3-1-6 0-4 2-8 5-10 6-3 13-1 16 5z"/>
<glyph glyph-name="camera" unicode="&#102;" d="M457 402l-78 0-24 33c-11 15-23 31-53 31l-128 0c-30 0-41-15-53-31l-25-33-41 0c-26 0-46-20-46-45l0-266c0-25 20-45 46-45l402 0c26 0 46 20 46 45l0 266c0 25-20 45-46 45z m-402-18l50 0 30 40c11 15 19 24 39 24l128 0c21 0 28-10 38-24l30-40 87 0c16 0 28-12 28-27l0-156-113 0c2 9 3 18 3 28 0 75-61 137-137 137-76 0-137-62-137-137 0-10 0-19 2-28l-76 0 0 156c0 15 12 27 28 27z m302-155c0-66-53-119-119-119-66 0-119 53-119 119 0 65 53 118 119 118 66 0 119-53 119-118z m100-165l-402 0c-16 0-28 12-28 27l0 92 82 0c19-53 69-92 129-92 59 0 110 39 129 92l118 0 0-92c0-15-12-27-28-27z m-219 256c-51 0-92-41-92-91 0-10 2-21 6-31 1-3 4-6 8-6 1 0 2 0 3 1 4 2 7 7 5 12-2 7-3 15-3 24 0 40 32 73 73 73 5 0 9 3 9 9 0 5-4 9-9 9z m164 9l46 0c5 0 9 4 9 9 0 6-4 9-9 9l-46 0c-5 0-9-3-9-9 0-5 4-9 9-9z"/>
<glyph glyph-name="calendar" unicode="&#103;" d="M465 456l-65 0 0 19c0 16-12 28-28 28l-9 0c-16 0-28-12-28-28l0-19-149 0 0 19c0 16-12 28-28 28l-9 0c-16 0-28-12-28-28l0-19-65 0c-26 0-47-20-47-46l0-363c0-27 21-47 47-47l409 0c27 0 47 20 47 47l0 363c0 26-20 46-47 46z m-409-18l65 0 0-19c0-16 12-28 28-28l28 0c5 0 9 4 9 9 0 6-4 10-9 10l-28 0c-6 0-9 3-9 9l0 56c0 5 3 9 9 9l9 0c6 0 10-4 10-9l0-19c-6 0-10-4-10-9 0-6 4-9 10-9l167 0 0-19c0-16 12-28 28-28l28 0c6 0 9 4 9 9 0 6-3 10-9 10l-28 0c-6 0-9 3-9 9l0 56c0 5 3 9 9 9l9 0c6 0 10-4 10-9l0-19c-6 0-10-4-10-9 0-6 4-9 10-9l83 0c16 0 28-13 28-28l0-75-465 0 0 75c0 15 12 28 28 28z m409-419l-409 0c-16 0-28 12-28 28l0 270 465 0 0-270c0-16-12-28-28-28z m-297 260c-6 0-10-3-10-9l0-65-65 0c-5 0-9-4-9-10 0-5 4-9 9-9l75 0c5 0 9 4 9 9l0 75c0 6-4 9-9 9z m0-121c-6 0-10-3-10-9l0-65-65 0c-5 0-9-4-9-10 0-5 4-9 9-9l75 0c5 0 9 4 9 9l0 75c0 6-4 9-9 9z m130 121c-6 0-9-3-9-9l0-65-66 0c-5 0-9-4-9-10 0-5 4-9 9-9l75 0c5 0 9 4 9 9l0 75c0 6-4 9-9 9z m0-121c-6 0-9-3-9-9l0-65-66 0c-5 0-9-4-9-10 0-5 4-9 9-9l75 0c5 0 9 4 9 9l0 75c0 6-4 9-9 9z m130 121c-5 0-9-3-9-9l0-65-65 0c-6 0-10-4-10-10 0-5 4-9 10-9l74 0c6 0 10 4 10 9l0 75c0 6-4 9-10 9z m0-121c-5 0-9-3-9-9l0-65-65 0c-6 0-10-4-10-10 0-5 4-9 10-9l74 0c6 0 10 4 10 9l0 75c0 6-4 9-10 9z"/>
<glyph glyph-name="cake" unicode="&#104;" d="M503 19l-29 0 0 104c0 27-21 48-47 48l-10 0 0 94c0 27-21 48-47 48l-86 0 0 57c0 5-3 9-9 9l-38 0c-6 0-9-4-9-9l0-57-86 0c-26 0-47-21-47-48l0-94-10 0c-26 0-47-21-47-48l0-104-29 0c-5 0-9-4-9-10 0-5 4-9 9-9l494 0c5 0 9 4 9 9 0 6-4 10-9 10z m-256 341l18 0 0-47-18 0z m-105-66l228 0c16 0 28-12 28-29l0-28c-8 0-12 3-18 8-6 4-14 11-29 11-15 0-23-7-30-11-5-5-9-8-18-8-8 0-12 3-18 8-6 4-14 11-29 11-15 0-23-7-29-11-6-5-10-8-18-8-9 0-13 3-18 8-7 4-15 11-30 11-15 0-23-7-29-11-6-5-10-8-18-8l0 28c0 17 12 29 28 29z m-28-76c15 0 23 7 29 11 6 5 10 8 18 8 9 0 13-3 18-8 7-4 14-11 30-11 15 0 22 7 29 11 6 5 9 8 18 8 9 0 12-3 18-8 7-4 14-11 29-11 16 0 23 7 30 11 5 5 9 8 18 8 8 0 12-3 18-8 6-4 14-11 29-11l0-47-284 0z m-29-66l342 0c16 0 28-13 28-29l0-37c-2-1-5-1-7-1-12 0-17 6-25 16-9 9-19 22-39 22-21 0-31-12-39-22-8-10-13-16-25-16-11 0-16 6-24 16-9 9-19 22-39 22-20 0-31-12-39-22-9-10-15-16-26-16-12 0-17 6-25 16-9 9-19 22-39 22-21 0-31-12-39-22-8-10-13-16-25-16-2 0-4 0-6 1l0 37c-1 16 11 29 27 29z m-28-85c2-1 5-1 7-1 20 0 31 13 38 23 9 11 14 15 25 15 11 0 16-5 25-15 8-9 19-23 39-23 20 0 31 13 38 23 9 10 14 15 25 15 11 0 16-5 25-15 8-9 19-23 39-23 20 0 31 13 39 23 8 10 13 15 24 15 12 0 16-5 25-15 8-9 19-23 39-23 3 0 4 0 7 1l0-48-395 0z m199 331c1 0 1 0 2 0 24 4 33 17 36 27 9 28-15 68-31 83-3 3-8 4-12 1-4-2-5-6-4-11 5-13-2-21-15-32-9-8-20-17-20-32 0-28 29-36 44-36z m-11 56c6 6 15 13 19 23 8-15 15-33 11-45 0-3-3-12-20-15-5 0-25 2-25 19 1 6 6 11 15 18z"/>
<glyph glyph-name="cards" unicode="&#105;" d="M457 503l-329 0c-26 0-46-20-46-46l0-137-27 0c-26 0-46-20-46-46l0-219c0-26 20-46 46-46l329 0c26 0 46 20 46 46l0 137 27 0c26 0 46 20 46 46l0 219c0 26-20 46-46 46z m-356-92l384 0 0-36-384 0z m310-356c0-16-11-28-27-28l-329 0c-16 0-28 12-28 28l0 219c0 16 12 28 28 28l329 0c16 0 27-12 27-28z m74 183c0-16-12-28-28-28l-27 0 0 64c0 26-20 46-46 46l-283 0 0 37 384 0z m-384 192l0 27c0 16 11 28 27 28l329 0c16 0 28-12 28-28l0-27z m64-339l-74 0c-5 0-9-3-9-9 0-5 4-9 9-9l74 0c5 0 9 4 9 9 0 6-4 9-9 9z m155 0l-110 0c-5 0-9-3-9-9 0-5 4-9 9-9l110 0c5 0 9 4 9 9 0 6-4 9-9 9z m46 174l-92 0c-5 0-9-4-9-9l0-55c0-5 4-9 9-9l92 0c5 0 9 4 9 9l0 55c0 5-4 9-9 9z m-9-55l-74 0 0 37 74 0z"/>
<glyph glyph-name="building2" unicode="&#106;" d="M228 104c5 0 9 4 9 10l0 114c0 5-4 9-9 9-6 0-10-4-10-9l0-114c0-6 4-10 10-10z m56 0c6 0 10 4 10 10l0 114c0 5-4 9-10 9-5 0-9-4-9-9l0-114c0-6 4-10 9-10z m57 0c6 0 10 4 10 10l0 114c0 5-4 9-10 9-5 0-9-4-9-9l0-114c0-6 4-10 9-10z m-170 0c5 0 9 4 9 10l0 114c0 5-4 9-9 9-6 0-10-4-10-9l0-114c0-6 4-10 10-10z m333 90l-94 23c-1 0-2 0-2 0l0 29c0 1 0 1-1 3l6-2c1 0 3 0 4 0 4 0 8 1 9 5 2 5 0 11-5 13l-61 25 0 80c0 60-37 99-95 104l0 29c0 5-3 9-9 9-6 0-9-4-9-9l0-29c-58-4-95-44-95-104l0-80-61-25c-5-1-8-7-5-12 2-5 8-7 13-5l6 3c0-1-1-2-1-4l0-29-96-24c-5-1-8-4-8-8l0-139c0-5 4-9 9-9l38 0c6 0 10 4 10 9 0 6-4 10-10 10l-28 0 0 121 85 20 0-113c0-5 4-9 10-9l284 0c6 0 10 4 10 9l0 114 85-21 0-121-28 0c-6 0-10-4-10-10 0-5 4-9 10-9l38 0c5 0 9 4 9 9l0 139c0 4-3 7-8 8z m-248 261c39 0 81-20 85-76l-170 0c4 56 46 76 85 76z m-85-95l170 0 0-62-81 33c-2 1-5 1-8 0l-81-33z m85-48l138-57c-3-1-5-5-5-8l0-152-266 0 0 152c0 3-2 7-5 8z m171-274c5 0 9 4 9 9 0 6-4 10-9 10l-342 0c-5 0-9-4-9-10 0-5 4-9 9-9z m28-19l-398 0c-6 0-10-4-10-10 0-5 4-9 10-9l398 0c6 0 10 4 10 9 0 6-4 10-10 10z"/>
<glyph glyph-name="alarm-clock" unicode="&#107;" d="M265 278l0 104c0 5-3 9-9 9-6 0-9-4-9-9l0-104c-22-4-38-23-38-45 0-10 3-19 8-26l-42-42c-4-4-4-10 0-13 2-2 5-3 7-3 2 0 4 1 6 3l42 42c7-5 17-8 26-8 26 0 47 21 47 47 0 22-16 41-38 45z m-9-73c-16 0-28 12-28 28 0 16 12 28 28 28 16 0 28-12 28-28 0-16-12-28-28-28z m223 28c0 123-100 223-223 223-123 0-223-100-223-223 0-61 24-117 64-157l-43-52c-4-4-3-10 1-13 1-1 4-2 6-2 2 0 5 1 7 4l43 51c38-34 89-55 145-55 54 0 102 19 142 51 0 0 0 0 0-1l37-47c2-2 4-4 7-4 2 0 4 1 6 2 3 3 4 10 2 13l-38 47c0 0-1 1-1 1 42 42 68 98 68 162z m-428 0c0 112 92 205 205 205 113 0 205-93 205-205 0-113-92-205-205-205-113 0-205 92-205 205z m205 186c-102 0-186-84-186-186 0-103 84-186 186-186 102 0 186 83 186 186 0 102-84 186-186 186z m0-354c-92 0-168 76-168 168 0 92 76 167 168 167 92 0 168-75 168-167 0-92-76-168-168-168z m209 309c1-2 3-2 5-2 1 0 1 0 2 0 3 1 6 3 6 5 0 1 28 61-27 105-17 14-38 22-59 22-27 0-47-12-48-12-2-1-4-4-4-7 0-3 1-6 4-7z m-73 112c18 0 33-6 47-18 31-24 30-54 26-71l-98 84c6 3 15 5 25 5z m-352-114c1 0 1 0 2 0 2 0 4 1 5 2l131 103c3 1 4 4 4 8 0 3-2 6-5 7-1 1-22 13-52 13-23 0-45-7-64-22-46-34-38-84-27-105 0-3 3-5 6-6z m32 96c16 12 34 19 53 19 11 0 21-2 29-5l-107-85c-5 16-7 47 25 71z"/>
<glyph glyph-name="anchor" unicode="&#108;" d="M477 202c-2 3-6 4-10 3l-83-19c-5-1-9-6-8-11 1-5 7-8 11-7l70 15c-3-20-18-83-89-102-53-14-86-35-104-49l0 257 75 0c5 0 9 3 9 9 0 5-4 9-9 9l-75 0 0 66c32 5 56 32 56 65 0 36-29 65-65 65-36 0-65-29-65-65 0-33 24-60 56-65l0-66-75 0c-5 0-9-4-9-9 0-6 4-9 9-9l75 0 0-258c-18 15-51 36-104 49-72 19-86 82-89 102l71-14c4-1 10 1 11 7 1 5-2 10-7 11l-84 19c-4 1-7 0-10-3-1-3-2-6-1-9l1-5c1-12 12-100 104-125 78-20 110-58 111-59 0 0 0 0 0-1 0 0 0-1 1-1 0 0 1 0 1-1 0 0 1 0 1-1 1 0 2-1 3-1 1 0 3 0 4 1 0 0 1 0 1 1 0 0 1 0 1 1 0 0 1 1 1 1 0 0 1 0 1 1 0 0 31 39 110 59 92 25 103 113 104 125l1 5c2 2 1 6-1 9z m-268 236c0 26 21 46 47 46 26 0 47-20 47-46 0-27-21-47-47-47-26 0-47 20-47 47z"/>
<glyph glyph-name="atm" unicode="&#109;" d="M457 457l-402 0c-26 0-46-20-46-46l0-128c0-25 20-45 46-45l64 0 0-183c0-6 4-9 9-9l256 0c5 0 9 3 9 9l0 183 64 0c26 0 46 20 46 45l0 128c0 26-20 46-46 46z m-82-339c-18-4-44-17-53-54l-132 0c-9 37-35 50-53 54l0 266 238 0z m-238-19c10-3 27-11 34-35l-34 0z m204-35c7 24 24 32 34 35l0-35z m144 219c0-15-12-27-28-27l-64 0 0 128 28 0c5 0 9-4 9-9l0-55c0-5-4-9-9-9-6 0-10-4-10-9 0-6 4-9 10-9 15 0 27 11 27 27l0 55c0 15-12 27-27 27l-330 0c-15 0-27-12-27-27l0-55c0-16 12-27 27-27 6 0 10 3 10 9 0 5-4 9-10 9-5 0-9 4-9 9l0 55c0 5 4 9 9 9l28 0 0-128-64 0c-16 0-28 12-28 27l0 128c0 16 12 28 28 28l402 0c16 0 28-12 28-28z m-229-109c56 0 101 41 101 91 0 50-45 92-101 92-56 0-101-42-101-92 0-50 45-91 101-91z m0 164c46 0 82-33 82-73 0-40-36-73-82-73-46 0-82 33-82 73 0 40 36 73 82 73z m1-75c0 11 8 19 20 19 11 0 20-10 20-21 0-8-4-12-10-16-4-2-6-7-4-12 1-4 4-5 8-5 1 0 2 0 3 1 14 6 21 18 21 32 0 22-17 39-38 39-21 0-38-17-38-37l0-7-20 0 0 37c0 5-3 9-9 9-5 0-9-4-9-9l0-55 55 0z"/>
<glyph glyph-name="backpack" unicode="&#110;" d="M466 205c0 0-1 0-1 0l0 65c6 7 10 18 10 28l0 93c0 26-21 47-47 47l-94 0c-4 36-36 65-73 65-39 0-69-29-74-65l-94 0c-26 0-46-21-46-47l0-93c0-10 3-20 9-28l0-65c-25-1-47-22-47-47l0-102c0-26 21-47 47-47l18 0c8-5 18-9 28-9l317 0c10 0 19 4 28 9l18 0c27 0 47 21 47 47l0 102c0 26-20 47-46 47z m-10 186l0-93c0-16-12-28-28-28l-46 0 0 149 46 0c16 0 28-12 28-28z m-65-223l-37 0 0 27 37 0z m-223 0l-38 0 0 27 38 0z m-10 251l205 0 0-149-205 0z m103 65c28 0 50-20 55-46l-110 0c4 26 27 46 55 46z m-196-93c0 16 12 28 28 28l47 0 0-149-47 0c-16 0-28 12-28 28z m-37-335l0 102c0 14 13 27 28 28l0-139c0-7 2-13 4-19l-4 0c-16 0-28 12-28 28z m74-37c-15 0-28 12-28 28l0 208c6-3 13-4 19-4l47 0 0-37-10 0c-10 0-18-8-18-19l0-27c0-11 8-19 18-19l10 0 0-19c0-5 3-9 9-9 6 0 9 4 9 9l0 19 10 0c10 0 18 8 18 19l0 27c0 11-8 19-18 19l-10 0 0 37 205 0 0-37-9 0c-10 0-19-8-19-19l0-27c0-11 9-19 19-19l9 0 0-19c0-5 4-9 9-9 6 0 10 4 10 9l0 19 9 0c10 0 19 8 19 19l0 27c0 11-9 19-19 19l-9 0 0 37 46 0c7 0 13 2 19 4l0-208c0-16-12-28-28-28z m391 37c0-16-12-28-28-28l-3 0c3 6 3 12 3 19l0 139c0 0 1 0 1 0 15 0 27-12 27-28z m-186 37l-93 0c-26 0-46-14-46-32l0-24c0-5 3-9 9-9 5 0 9 4 9 9l0 24c0 6 12 13 28 13l93 0c16 0 28-7 28-13l0-24c0-5 4-9 9-9 6 0 10 4 10 9l0 24c0 18-21 32-47 32z"/>
<glyph glyph-name="man" unicode="&#111;" d="M458 0c7 0 29 0 29 23 0 10-1 15-9 43-10 30-93 82-134 101l-27 13c-1 9-2 19-2 26 5 5 11 12 16 21 2 3 4 6 6 9 6 9 12 18 17 30 4 2 9 7 13 12 11 20 17 52 13 65-2 4-6 8-10 11 0 58-26 104-71 122-9 3-23 9-44 15-9 2-13 6-14 7 0 3-2 5-4 7-1 1-4 1-7 1-8-1-15-12-18-19-1-3-2-6-2-9-15-1-29-9-34-25-1-2-1-3-1-4-16-18-32-48-32-94-5-2-9-6-12-11-4-14 2-45 13-65 3-5 9-10 14-12 5-12 11-21 17-31 2-2 4-5 6-8 5-10 12-18 18-23 0-9-2-19-3-27-1-2-7-8-17-11-44-17-135-67-144-102-6-26-9-38-9-39 0-1 0-1 0-2-1-24 22-24 32-24z m-212 78l-16 38 25 13 25-13-12-32-3 0c-5 0-9-4-9-10 0-5 4-9 9-9l3 0 16-46-55 0 18 53c0 2 0 4-1 6z m212-59c-2 0-5 0-7 0-3 0-6 0-10 0l-138 0c0 1 0 1 0 2l-18 53 18 44c1 5 0 10-5 12l-37 19c-3 1-6 1-9 0l-37-19c-5-2-6-7-5-12l18-44-18-53c0-1 0-1 0-2l-140 0c-2 0-5 0-7 0-2 0-3 0-5 0-13 0-14 1-14 5 1 4 3 16 9 37 6 22 80 69 132 89 19 7 27 18 27 18 1 1 1 2 1 3 3 11 4 27 5 38 0 2-2 6-4 7-6 5-12 11-18 20-1 3-3 6-5 9-7 10-12 18-17 31-1 4-5 6-8 6-1 0-4 1-5 4-9 17-13 43-12 48 0 0 1-1 4-1 2 0 4 2 6 4 2 2 3 6 3 8-2 53 18 82 34 97 4 5 5 9 3 13 0 0 0 0 0 1 8 5 19 5 22 5 3 0 6 2 8 4 2 3 2 8 0 11-1 2 1 4 3 8 5-5 12-7 18-9 20-6 33-11 42-15 40-16 62-57 60-112 0-3 1-4 3-6 2-2 3-3 6-3 2 0 3 0 3 0 2-6-2-32-11-49-1-3-4-4-5-4-4-1-6-3-7-6-5-13-11-22-17-31-2-3-4-6-6-10-5-9-11-16-15-19-2-2-4-5-4-8 0-8 1-25 4-39 1-3 3-5 5-5l30-15c51-23 118-71 124-90 8-26 8-29 8-37-2-6-2-7-12-7z"/>
<glyph glyph-name="men" unicode="&#112;" d="M489 168c6 0 12 0 16 4 4 4 6 9 6 14 0 7-1 10-6 29-6 19-35 53-68 68l-16 7c-1 4-1 10-2 14 4 4 7 9 10 14 1 2 3 4 4 6 4 6 7 12 11 20 4 1 7 4 8 8 7 13 13 35 9 45-1 3-4 6-7 8-1 39-18 70-48 81-6 4-16 7-29 11-2 1-4 1-5 2-2 1-5 2-10 2-1 0-2 0-3 0-9-2-15-7-19-12-7-2-15-7-19-19 0-1-1-2-1-3-8-9-14-21-17-34-1-5 1-10 6-11 5-1 10 2 11 6 4 13 10 25 19 33 3 3 4 7 3 10 2 2 2 4 3 4 5 0 10 1 10 5 0 2 3 1 5 2 2 0 3-1 5-1 2-1 4-1 6-2 12-3 21-7 27-9 25-10 38-35 37-71 0-2 1-4 3-6 0-1 2-3 4-3 0-6-3-19-7-28 0-1-1-1-1-1-4-1-7-3-8-5-2-9-6-14-11-21-1-2-3-4-4-6-3-6-6-10-10-12-2-2-3-5-3-8 0-6 0-17 3-27 1-3 3-5 5-6l20-10c29-13 55-44 59-57 6-17 7-19 7-23 0 0-7 0-10 0-2 0-4 0-6 0l-132 0c-5 0-9-4-9-9 0-6 4-9 9-9z m-312 0c5 0 9 3 9 9 0 5-4 9-9 9l-137 0c-2 0-5 0-6 0-2 0-6 0-6 0 0 0 0 0 0 1 0 0 0 8 4 23 3 15 37 46 66 56 13 5 18 13 19 14 1 1 1 2 1 3 3 9 3 21 3 25 0 3-2 7-4 8-3 2-7 6-11 13-1 1-3 3-4 5-3 7-7 12-11 21-1 3-3 5-7 5 0 0-1 1-1 1-5 9-8 23-8 28 2 0 5 1 7 3 2 2 3 5 3 6-1 27 6 49 21 62 3 3 4 6 3 9 1 0 2 1 2 1 0 0 1 0 1 0 4 0 9 3 9 8 0 0 3 1 4 2 2 0 3 0 3-1 3 0 4-1 8-1 9-3 18-6 27-10 15-6 26-18 32-36 4-3 10-6 14-4 5 2 8 7 6 12-7 23-22 40-43 48-9 4-18 7-29 10-4 1-7 2-10 2-1 0-3 0-5 1-1 0-3 0-4 0-5-1-12-5-17-11-6-2-16-7-19-19 0-1-1-2-1-3-11-12-21-31-21-60-4-2-6-5-7-9-4-10 2-32 8-44 2-4 6-8 9-10 4-8 8-14 12-19 0-2 1-4 3-6 4-6 8-11 12-15 0-4-1-10-2-15-1-1-4-3-10-5-33-13-72-47-78-69-4-20-4-29-4-30 0-5 2-11 6-14 4-4 9-4 15-4z m252-159c17 0 25 7 25 22 0 8-1 13-7 35-9 27-79 70-113 85l-20 10c-1 6-2 13-2 21 5 4 9 10 14 17 2 3 3 5 4 8 5 7 10 15 14 26 5 2 9 5 12 10 8 16 15 43 10 55-2 5-5 7-9 9 0 50-22 88-59 103-8 3-20 8-36 13-7 1-11 4-11 4 0 3-2 5-3 7-2 2-5 2-8 2-7-2-14-12-16-17-1-2-2-5-2-7-13-1-25-8-28-21 0-1-1-3-1-4-13-15-26-40-26-77-5-2-9-6-10-10-4-12 2-39 11-55 2-5 6-9 11-10 4-11 9-18 14-26 2-1 2-4 4-6 5-8 11-14 16-19 0-6-1-15-3-20-1-2-6-6-14-9-30-12-112-54-121-85-5-22-7-32-7-33 0-1 0-1 0-2 0-22 21-22 29-22l332 0z m7 19c0 0-2-1-7-1-2 0-4 0-5 0-3 0-5 0-8 0l-311 0c-2 0-4 0-5 0l-5 0c-7 0-9 1-9 1 0 0 0 0 0 2 1 3 2 13 7 31 5 17 67 56 110 72 16 7 23 15 23 17 1 1 1 2 1 3 3 12 4 27 4 31 0 3-2 7-4 8-5 3-9 8-15 17-2 2-3 4-4 7-6 8-11 16-14 26-1 4-5 6-9 7-1 0-2 0-3 2-7 14-10 34-9 39 0 0 1 0 2 0 3 0 5 1 7 3 1 2 2 5 2 7-2 44 15 68 28 79 3 3 4 6 3 10 6 3 14 3 16 3 4 0 6 1 8 4 2 2 2 7 0 10 0 1 0 2 1 4 5-3 10-6 15-7 16-5 27-9 35-12 32-13 50-47 48-92 0-3 1-5 3-7 2-2 3-2 6-2 0 0 1 0 1 0 1-6-2-26-9-40-1-1-3-2-3-2-4-1-6-3-7-6-4-10-9-18-14-26-2-3-3-5-5-7-5-8-8-14-13-16-2-2-4-5-4-8 0-7 1-21 4-33 1-3 3-5 5-6l25-12c42-19 97-59 102-73 7-22 7-26 7-31 0-1 0-1 0-2z"/>
<glyph glyph-name="building" unicode="&#113;" d="M503 19l-29 0 0 46c18 5 32 22 32 43 0 38-32 82-33 84-2 2-5 3-7 3-3 0-6-2-8-3-1-2-33-49-33-83 0-17 12-36 30-42l0-47-38 0 0 160c6 0 10 4 10 10 0 5-4 9-10 9l0 237c0 14-10 30-24 34l-116 36c-12 4-30 4-42 0l-116-36c-14-4-24-20-24-34l0-237c-6 0-10-4-10-9 0-6 4-10 10-10l0-161-38 0 0 47c17 5 31 23 31 42 0 38-32 82-33 84-2 2-5 3-8 3-2 0-5-2-7-3-2-3-33-50-33-84 0-18 12-37 31-42l0-47-29 0c-5 0-9-4-9-10 0-5 4-9 9-9l494 0c5 0 9 4 9 9 0 6-4 10-9 10z m-477 89c0 18 12 44 21 60 9-14 22-39 22-60 0-12-10-25-22-25-12 0-21 15-21 25z m88 328c0 7 5 13 11 15l116 36c8 3 23 3 30 0l116-36c6-2 11-8 11-15l0-237-57 0 0 10c0 5-3 9-9 9l-152 0c-6 0-9-4-9-9l0-10-57 0z m76-237l132 0 0-19-132 0z m9-180l0 85 48 0 0-85z m66 0l0 85 48 0 0-85z m67 0l0 85 19 0c6 0 9 4 9 10 0 5-3 9-9 9l-190 0c-6 0-9-4-9-9 0-6 3-10 9-10l19 0 0-85-66 0 0 161 57 0 0-9c0-6 3-10 9-10l152 0c6 0 9 4 9 10l0 9 57 0 0-161z m112 89c0 18 12 44 22 60 8-14 21-39 21-60 0-12-10-25-21-25-12 0-22 15-22 25z m-292 224c5 0 9 4 9 9l0 29 29 0c5 0 9 4 9 9 0 6-4 10-9 10l-38 0c-6 0-10-4-10-10l0-38c0-5 4-9 10-9z m85 0c6 0 10 4 10 9l0 29 28 0c6 0 9 4 9 9 0 6-3 10-9 10l-38 0c-6 0-9-4-9-10l0-38c0-5 3-9 9-9z m85 0c6 0 10 4 10 9l0 29 28 0c6 0 10 4 10 9 0 6-4 10-10 10l-38 0c-5 0-9-4-9-10l0-38c0-5 4-9 9-9z m-132-48c5 0 9 4 9 10 0 6-4 9-9 9l-38 0c-6 0-10-3-10-9l0-38c0-6 4-9 10-9 5 0 9 3 9 9l0 28z m47-37c6 0 10 3 10 9l0 28 28 0c6 0 9 4 9 10 0 6-3 9-9 9l-38 0c-6 0-9-3-9-9l0-38c0-6 3-9 9-9z m85 0c6 0 10 3 10 9l0 28 28 0c6 0 10 4 10 10 0 6-4 9-10 9l-38 0c-5 0-9-3-9-9l0-38c0-6 4-9 9-9z"/>
</font>
</defs>
</svg>
